<?xml version="1.0" standalone="no"?>
<!DOCTYPE svg PUBLIC "-//W3C//DTD SVG 1.1//EN" "http://www.w3.org/Graphics/SVG/1.1/DTD/svg11.dtd" >
<svg xmlns="http://www.w3.org/2000/svg">
<metadata>
Created by FontPrep 20130207 at Fri Mar 20 15:02:04 2015
 By Kristof Hermans
Copyright (c) 2013 by Mans Greba:ck. All rights reserved.
</metadata>
<defs>
<font id="cafa9fb1a6115aa67dcd91cae32f723a" horiz-adv-x='1024' >
  <font-face 
    font-family="VentographyPersonalUseOnly"
    font-weight="400"
    font-stretch="normal"
    units-per-em="2048"
    panose-1="2 0 5 3 0 0 0 0 0 0"
    ascent="1536"
    descent="-512"
    x-height="785"
    cap-height="1162"
    bbox="-292.013 -471 1723.14 1525.28"
    underline-thickness="102"
    underline-position="-102"
    unicode-range="U+0041-00FC"
  />
<missing-glyph horiz-adv-x="1024" 
 />
    <glyph glyph-name=".notdef" horiz-adv-x="1024" 
 />
    <glyph glyph-name=".null" horiz-adv-x="0" 
 />
    <glyph glyph-name="nonmarkingreturn" horiz-adv-x="681" 
 />
    <glyph glyph-name="A" unicode="A" horiz-adv-x="884" 
d="M530 498q140 -6 170 -2h9q4 2 10 2q119 254 242 465q-131 -123 -244 -242q-102 -115 -187 -223zM287 401l-155 -8h-44q-38 0 -92 99q-12 38 -10 62t34 14t60 -14q28 -5 59 -10t51 -9t195 -25q175 194 453 453q100 94 179 154q79 61 92 63q23 4 99 -37q20 -16 41 -39
q12 -23 2 -39q-160 -231 -294 -517t-154 -378q-16 -49 -6 -55q2 -2 14 2l29 6q12 6 20 0q6 0 -9 -28t-58 -79q-43 -43 -76 -40t-82 28q-25 8 -37 25q-14 11 -21 43t29 140t84 222q-4 0 -48 -6t-175 -16q-66 -90 -139 -205l-123 -203q-21 -34 -117 -39q-35 -2 -59 8
q-27 8 -19 27q59 145 277 401z" />
    <glyph glyph-name="B" unicode="B" horiz-adv-x="946" 
d="M434 420q-49 -72 -78 -127q-33 -53 -51 -107q4 -4 2 -4q10 -23 53 -10q41 6 140 45t237 133q45 31 90 80q31 41 20 66t-56 24q-147 18 -357 -100zM807 969q33 -37 8 -66q-147 -168 -254 -303q222 72 414 158q109 53 171 94t64 82q4 41 -32 60t-101 26q-144 0 -270 -51z
M51 56q0 16 27 71q49 117 140 251q245 361 370 509l-56 -6q-36 -4 -54 26q-17 29 -20 47t-3 52q8 29 18 45q52 60 354 108q160 28 303 12q62 -13 94 -43q57 -55 74 -137q0 -64 -21 -97q-45 -72 -161 -157q-25 -18 -121 -82q-102 -55 -141 -73q59 -35 96 -93q41 -55 29 -127
t-156 -174q-112 -83 -227 -133q-114 -51 -180 -71q-63 -14 -89 -8t-44 20q-2 4 -12 13t-13 18q-62 -50 -98 -51t-72 28q-16 10 -27 21q-10 15 -10 31z" />
    <glyph glyph-name="C" unicode="C" horiz-adv-x="833" 
d="M903 1159q35 14 90 11q55 -4 107 -26t84 -50q64 -57 -13 -189q-86 -163 -266 -235q-90 -33 -184 0q-37 12 -49 48q-26 78 16 134q18 23 45 14q115 -43 228 -24t129 63q6 20 -25 45q-35 23 -109 38q-74 16 -166 -28q-183 -87 -326 -307q-143 -219 -108 -366
q12 -80 95 -117q49 -23 96 -23q85 -10 194 29q33 12 63 33t36 13q6 -9 -15 -29q-76 -82 -145 -123q-62 -44 -112 -66t-113 -29q-61 -1 -113 11q-118 26 -137 98q-34 149 49 377q33 91 100 203q139 233 338 380q105 76 211 115z" />
    <glyph glyph-name="D" unicode="D" horiz-adv-x="890" 
d="M1167 958q-33 60 -142 60t-216 -45q16 -16 21 -36t-9 -34q-88 -96 -162 -186q-68 -88 -143 -187q-68 -98 -115 -170q-47 -80 -75 -143q161 77 376 240q86 66 191 151q182 158 256 269q33 55 18 81zM1184 1118q63 -74 57 -157q0 -81 -50 -179t-125 -184t-181 -192
q-158 -137 -195 -168q-193 -149 -281 -204q-89 -55 -104 -53t-51 37q-15 -8 -49 -31t-66 -8q-33 15 -45 25q-16 8 -28 21q-10 14 -11 18q0 45 80 188t225 349q94 142 228 299l-68 -19q-45 -12 -67 29q-23 34 -23 100q6 31 22 51q44 58 349 115q184 25 297 4q57 -8 86 -41z
" />
    <glyph glyph-name="E" unicode="E" horiz-adv-x="909" 
d="M104 148q34 72 122 215q89 144 200 292q66 92 123 158q51 66 98 113l-63 -19q-31 -12 -47 2q-32 41 -19 97q6 27 17 32q78 55 276 88q102 18 180 29q127 12 174 12q80 6 133 0q54 0 66 -14q22 -27 8 -125q-10 -39 -20 -63q-16 -27 -31 -25q-90 15 -265 19
q-175 3 -298 -15q20 -12 41 -43q14 -27 -4 -47q-76 -88 -95 -104q-14 -18 -43 -54t-43 -53q105 43 220 55t137 -10q8 -8 5 -52t-30 -91q-18 -25 -37 -25q-177 -6 -313 -42q-44 -12 -60 -1q-16 10 -26 29q-86 -121 -141 -215q-51 -98 -62 -158q85 39 287 88q104 19 148 23
t62 -10q39 -29 51 -94q11 -64 3 -90t-39 -19q-207 37 -481 -58q-67 -16 -86 33q-35 -23 -66 -31q-45 0 -80 29q-36 22 -36 47t34 97z" />
    <glyph glyph-name="F" unicode="F" horiz-adv-x="784" 
d="M836 422h-85t-97 -6q-42 -6 -73 -15t-49 11t-24 49q-164 -241 -160 -316q0 -23 26 -17q47 12 11 -26q-13 -18 -35 -36t-55 -46l-49 -32q-25 -12 -42 -13t-83 37q-47 40 -47 61q0 56 115 245t204 308t135 181q66 80 101 117l-31 -9q-4 0 -30 -10t-43 7q-32 32 -17 96
q6 27 16 32q81 57 267 89t321 42h125q51 -6 60 -18t14 -51q0 -89 -29 -135q-12 -29 -31 -25q-94 14 -227 21q-129 0 -252 -15q33 -25 43 -51q16 -23 0 -47q-149 -169 -244 -299q41 23 95 35q99 32 190 24q37 -2 49 -14t13 -39q-6 -54 -33 -111q-18 -24 -49 -24z" />
    <glyph glyph-name="G" unicode="G" horiz-adv-x="851" 
d="M604 -142q-15 -20 -46 -20t-56 26q-24 26 -34 38q-26 31 24 157q46 104 94 187q-81 -114 -113 -144t-80 -73q-56 -39 -104 -17q-27 6 -51 25q-93 48 -58 223q29 169 172 408q146 229 338 374q102 78 211 117q35 14 91 11q108 -6 188 -74q32 -31 32 -73t-41 -116
t-110 -141q-70 -63 -158 -97t-184 1q-37 12 -49 49t-7 73t24 60t46 14q114 -43 229 -23t125 62q6 20 -22 45q-39 23 -110 38q-71 16 -157 -28q-157 -79 -302 -284q-141 -213 -148 -352q-6 -74 33 -101t86 -6q92 55 162 135q69 80 100 109q84 110 128 115t89 -19
q39 -29 21 -51q-79 -104 -142 -216q-63 -111 -45 -122q2 -2 34 12t36 9t-33 -41t-65 -74q-28 -39 -52 -74q-25 -35 -53 -79q-28 -43 -43 -63z" />
    <glyph glyph-name="H" unicode="H" horiz-adv-x="841" 
d="M66 66q0 51 170 331q-107 -7 -130 -6q-23 3 -44 29t-46 72q-12 33 -12 61q6 23 60 8t249 -41q47 74 91 136t108 155q96 125 114 149t50 60q32 34 33 45q-6 6 -17 8h-22q-26 0 0 29q94 69 162 69q24 0 49 -16q51 -22 82 -82q10 -23 -5 -37q-120 -124 -238 -280t-185 -258
q124 -9 170 -4q158 241 305 415q82 102 141 164q55 63 106 96q8 6 37 -6q58 -35 82 -86q12 -25 -4 -41q-209 -209 -463 -590q-126 -200 -151 -282q-4 -20 -1 -28t17 -7q41 9 25 -13t-49 -55q-43 -37 -78 -57q-42 -29 -60 -29q-18 -1 -34 7t-54 30q-25 23 -32 33
q-14 12 -15 21q0 78 187 362l-187 -16q-111 -162 -170 -269q-27 -39 -45 -71t-29 -47q-11 -16 -20 -30q-8 -13 -50 -8t-77 42q-20 18 -20 37z" />
    <glyph glyph-name="I" unicode="I" horiz-adv-x="475" 
d="M232 -25q-18 -1 -34 7t-55 30q-25 23 -32 33q-15 12 -15 29t37 102t150 277q210 338 352 510q-153 -13 -170 12q-21 42 -23 102q4 31 13 43q6 18 26 15q96 -17 252 -17q165 15 208 37q42 22 51 7q16 -27 2 -78q-15 -52 -31 -67t-62 -36q-63 -66 -160 -184
q-98 -131 -142 -197t-128 -213t-98 -227q-2 -37 20 -31q41 9 25 -13t-49 -55q-43 -37 -78 -57q-41 -29 -59 -29z" />
    <glyph glyph-name="J" unicode="J" horiz-adv-x="841" 
d="M100 138q0 93 43 177q43 102 136 146q51 23 154 -10q44 -14 63 -29q25 -14 2 -28t-70 -50q-85 -79 -139 -149q-25 -35 -29 -64t2 -39q6 -32 73 5q67 38 136 118q134 144 272 369q139 225 213 348q-260 -37 -415 -27q-44 7 -55 20t-11 46q-2 33 4 73q10 39 21 64
q16 27 30 25q155 -19 388 -19q260 16 321 40q60 25 77 8t22 -60t-21 -68q-56 -42 -236 -80q20 -14 41 -36q16 -26 5 -50q-88 -197 -183 -352q-51 -90 -117 -180q-63 -92 -122 -156q-126 -153 -244 -182q-63 -16 -130 -10t-110 28q-49 16 -85 52q-36 38 -36 70z" />
    <glyph glyph-name="K" unicode="K" horiz-adv-x="866" 
d="M708 18q-28 -18 -56 -18t-56 26q-26 26 -35 42q-12 14 -13 31q-3 47 71 228q73 181 81 211t2 36t-30 2q-24 -6 -41 -19q-50 -26 -129 -84q-70 -101 -100 -149q-48 -77 -92 -145q-45 -67 -72 -118l-37 -61q-21 -32 -85 -3t-67 69q0 67 223 409q196 308 402 559q36 39 6 39
q-12 4 -24 2q-29 -5 -3 27q93 69 162 69q24 0 49 -16q29 -12 49 -37q23 -20 33 -44t-4 -38q-102 -104 -180 -209q-74 -92 -176 -233q131 94 172 131q29 20 75 60t72 72q25 32 45 52q60 75 84 103t107 114q51 48 71 55q38 13 115 -53q68 -68 31 -90q-45 -31 -161 -135
q-117 -103 -175 -147t-86 -54t-75 -22q-48 -12 -99 -37q32 -11 60 -27q61 -37 41 -133q-21 -97 -60 -212t-35 -124q4 -4 20 0l31 13q17 4 23 2t-16 -32t-55 -62q-35 -32 -63 -50z" />
    <glyph glyph-name="L" unicode="L" horiz-adv-x="909" 
d="M940 1171q16 0 41 -16q29 -12 47 -37q23 -16 33 -45q12 -23 -2 -37q-156 -163 -321 -392q-164 -229 -285 -423q113 13 262 21q116 0 131 -18q25 -30 10 -126q-10 -39 -20 -63q-16 -27 -31 -25q-155 19 -387 19q-259 -16 -320 -41q-60 -26 -78 -8t-23 60t21 69
q83 57 301 92q-27 14 -45 37q-16 23 -7 41t114 188q177 271 278 397q49 72 102 134t46 67q0 8 -12 8q-9 4 -23 2t-16 3t14 24q27 23 41 28q64 41 129 41z" />
    <glyph glyph-name="M" unicode="M" horiz-adv-x="1200" 
d="M662 1073q-26 0 0 29q93 69 169 69h5q23 0 82 -45q49 -49 38 -82q-143 -359 -258 -759q59 95 172 245t239 283q289 305 490 356q10 6 37 -8q57 -29 82 -84q12 -25 -4 -41q-90 -90 -190 -214t-271 -376q-126 -200 -151 -282q-4 -20 -1 -28t25 -5q22 4 21 -2q0 -13 -57 -68
q-37 -33 -76 -57q-37 -29 -59 -29q-22 -1 -35 7t-52 30q-25 23 -32 33q-14 12 -14 30q-1 41 91 199q41 74 99 160q63 102 118 176q63 96 127 176q47 70 125 162q-113 -78 -309 -297q-197 -237 -282 -372q-63 -88 -99 -156q-41 -66 -51 -105q-5 -59 -35 -55q-54 11 -82 37
q-6 4 -27 25t-24 34q-21 87 59 379q80 274 179 504q-118 -182 -237 -398t-155 -288l-71 -143q-33 -68 -42 -98q-14 -48 -97 -48q-33 8 -52 19q-18 16 -15 41t89 179q207 369 436 683q69 91 103 129t31 44t-17 11h-22z" />
    <glyph glyph-name="N" unicode="N" horiz-adv-x="966" 
d="M820 1171q22 0 48 -10l41 -26q20 -16 38 -38t11 -53q-62 -180 -136 -474t-89 -404q-4 -41 6 -41t27 18q43 61 79 145q35 84 117 284q82 198 123 299t113 262q14 35 113 -15q41 -33 53 -51q23 -27 10 -49q-80 -123 -236 -395q-156 -273 -266 -447q-133 -197 -192 -209
q-23 -4 -44 6q-66 31 -87 68q-30 30 -18 110q40 250 114 507q73 258 115 368q-48 -71 -191 -346q-61 -135 -94 -201q-27 -63 -72 -165t-82 -199q-37 -96 -40 -103q-8 -28 -42 -32q-72 -9 -130 36q-27 16 -23 41t37 88q39 84 80 154q52 99 239 401q86 131 131 191
q57 85 95 125t35 46t-15 11h-24q-26 0 0 29q93 69 156 69z" />
    <glyph glyph-name="O" unicode="O" 
d="M459 602q-61 -98 -98 -223t8 -182q30 -42 74 -40q45 3 87 19q92 43 170 127q165 165 267 402q80 181 36 234q-44 52 -143 52q-47 -6 -78 -26q-94 -57 -180 -159t-143 -204zM643 78q-129 -113 -249 -113q-98 0 -168 65q-69 65 -33 216q37 178 176 405q76 123 143 201
q68 90 160 172q149 141 271 148q123 7 194 -80q55 -70 -13 -258q-73 -210 -193 -401q-52 -83 -140 -200q-76 -94 -148 -155z" />
    <glyph glyph-name="P" unicode="P" horiz-adv-x="952" 
d="M854 971q33 -43 12 -68q-188 -220 -286 -358q465 163 647 282q72 47 78 92t-38 70t-115 30q-152 11 -298 -48zM218 -25q-18 -1 -34 7t-55 30q-47 40 -47 59q0 67 142 285q216 332 360 510l-37 -10q-32 0 -49 33q-23 34 -23 100q5 31 21 51q26 34 208 83q181 49 311 54
q131 5 197 -4t103 -47q64 -66 73 -143q10 -77 -20 -125q-32 -47 -102 -104t-148 -103q-88 -57 -180 -98q-140 -77 -255 -116t-137 -37t-50 22q-136 -215 -140 -279q0 -20 23 -14q39 10 24 -12q-16 -25 -53 -58t-76 -55q-37 -29 -56 -29z" />
    <glyph glyph-name="Q" unicode="Q" horiz-adv-x="862" 
d="M422 156q29 0 74 16q-93 145 -164 193q-18 -85 -9 -119t20 -50t31 -28t48 -12zM449 449q29 -4 184 -189q119 96 244 309q53 94 79 172q59 153 19 202q-40 48 -139 48q-91 -13 -207 -130q-117 -118 -211 -283q-41 -74 -68 -150q55 18 99 21zM575 43q-108 -78 -206 -78
q-99 0 -167 65t-33 229q36 165 175 392q76 123 143 201q68 90 160 172q149 141 272 148q124 7 195 -80q58 -77 -20 -277q-47 -125 -99 -221q-114 -235 -288 -428q241 -303 224 -356q-10 -30 -101 -68q-38 -16 -64 -16q-29 -6 -39 12q-69 161 -152 305z" />
    <glyph glyph-name="R" unicode="R" horiz-adv-x="966" 
d="M834 967q29 -39 8 -64q-117 -133 -165 -193t-69 -85q204 68 273 96q154 54 227 95q125 71 129 114q6 45 -30 64t-103 26q-153 0 -270 -53zM655 134l37 349q0 25 -6 35q-12 14 -63 8t-107 -28q-59 -82 -98 -150q-95 -146 -99 -221q-6 -39 13 -53q9 -9 -99 -84
q-41 -25 -83 -5t-62 40q-10 13 -10 29t36 96q60 133 215 352q38 55 100 146t187 239q-30 -2 -52 -5t-36 1q-27 17 -45 73q-4 33 0 50q0 18 19 45q53 60 354 108q160 28 303 12q63 -13 94 -43t61 -87t9 -107q-29 -83 -149 -172q-120 -88 -285 -139q-72 -25 -150 -45
q45 -12 66 -25q31 -12 42 -42q11 -31 16 -99t6 -108t1 -95t6 -61t21 0q43 20 51 15t-26 -46q-36 -41 -56 -59t-59 -46q-21 -12 -37 -12t-40 10t-36 27q-26 20 -39 61v36z" />
    <glyph glyph-name="S" unicode="S" 
d="M127 170q0 22 12 39q20 25 37 33q14 14 94 51q18 6 22 -3t-8 -31q-12 -23 -10 -27t45 -3q51 8 95 21q112 23 243 78q39 14 97 45q64 41 41 70q-23 28 -90 73l-62 37q-74 41 -172 86q-12 4 -35 33t-30 69q-17 51 46 116q64 64 119 101q108 84 299 160q176 58 240 39
q63 -19 78 -111q15 -93 -7 -115q-7 -7 -38 -4t-106 -3q-151 -12 -335 -84q-82 -31 -137 -75t-60 -56t11 -23q41 -25 128 -65t167 -105q45 -33 61 -68t19 -85t-13 -75q-33 -53 -141 -114q-290 -164 -450 -182q-108 -21 -127 33q-29 65 -29 104q-4 19 -4 41z" />
    <glyph glyph-name="T" unicode="T" horiz-adv-x="671" 
d="M350 -25q-20 -1 -36 7t-54 30q-47 40 -47 54q0 64 99 260t179 317q169 256 248 315q-226 -4 -366 -51q-33 -12 -54 4q-34 34 -20 97q6 27 18 32q43 27 170 61t351 54q66 8 198 16h152q64 -6 75 -17t13 -51q4 -89 -31 -136q-12 -29 -35 -25q-92 10 -174 16q-129 4 -198 3
q20 -12 30 -25q20 -16 25 -31q8 -8 11 -24t-7 -31q-211 -235 -352 -502q-80 -174 -62 -211q6 -12 27 -8q39 10 25 -12q-15 -25 -53 -58t-76 -55q-36 -29 -56 -29z" />
    <glyph glyph-name="U" unicode="U" horiz-adv-x="866" 
d="M626 -25q-20 0 -44 13l-43 24q-47 40 -47 61q0 46 83 195q-7 -7 -40 -36t-104 -96t-139 -116q-67 -49 -81 -49q-14 1 -38 11t-36 26q-27 20 -39 62q-2 45 30 125q70 175 193 361t191 282q178 239 289 348q14 14 46 3t56 -34q29 -18 45 -46t2 -42q-199 -241 -319 -414
q-195 -270 -326 -501q-25 -49 -19 -55t54 32q47 39 111 90t99 85q36 34 56 52l47 47q197 335 467 656q68 79 119 110q16 10 48 0q71 -22 106 -84q12 -29 -9 -49q-160 -160 -323 -393q-51 -68 -159 -234t-128 -245q-6 -20 -3 -28t25 -5q22 4 21 -4q-10 -20 -55 -66
q-43 -37 -78 -57q-38 -29 -58 -29z" />
    <glyph glyph-name="V" unicode="V" horiz-adv-x="827" 
d="M766 1133q66 -21 74 -63q12 -62 -123 -370q-12 -29 -42 -87t-46 -90q-92 -185 -189 -335q276 257 449 500q76 100 138 198t153 247q17 27 114 38q95 0 82 -34q-41 -113 -207 -314q-234 -287 -534 -569q-29 -27 -164 -152q-121 -96 -149 -118t-55 -28q-28 -5 -91 40
q-20 12 -41 37q-12 23 -2 39q63 92 121 194q179 294 287 576q65 162 47 180q-5 5 -41 -10h-21q-11 7 17 48q75 108 123 101q29 -4 46 -10t54 -18z" />
    <glyph glyph-name="W" unicode="W" horiz-adv-x="1140" 
d="M768 1133q26 -8 48 -25q22 -16 26 -34t-11 -79q-33 -92 -49 -132q-16 -41 -73 -151q-99 -192 -289 -495q191 180 330 356q52 61 96 124t135 194q21 61 43 142t44 95t79 20q125 11 129 -18q10 -50 -51 -217q-95 -231 -263 -531q-50 -89 -96 -163q212 219 367 457
q94 164 156 290l81 167q10 20 43 26q23 8 65 12t69 -8q27 -6 20 -26q-62 -165 -287 -445q-178 -233 -426 -493q-234 -238 -270 -242t-98 39q-25 16 -40 38t-3 38q123 158 194 284q84 141 133 252q-196 -242 -353 -394q-157 -153 -215 -203t-74 -53q-38 -7 -97 38
q-29 16 -41 37q-16 20 -1 42t124 191q78 136 123 205q149 271 192 371q79 163 62 180q0 2 -16 -2t-25 -8h-21q-11 7 25 58q35 51 66 72q32 21 56 17t38 -8z" />
    <glyph glyph-name="X" unicode="X" horiz-adv-x="866" 
d="M782 1159q28 0 95 -37q20 -16 41 -39q14 -25 6 -39q-41 -82 -76 -176q-33 -78 -55 -161q53 51 206 215q109 129 160 211q8 14 45 26q84 17 131 4q25 -8 19 -26q-38 -107 -215 -277q-86 -86 -185 -170q-82 -74 -206 -174q-29 -170 -23 -287q12 -111 25 -123h16l25 7
q33 6 19 -20q-21 -41 -77 -89q-60 -60 -123 -29q-30 12 -59 41t-36 57q-7 27 -11 103q0 82 8 158q-166 -125 -184 -138t-112 -83t-153 -110t-68 -46t-24 0q-14 6 -16 20q-16 38 20 60q81 54 189 135q265 209 366 295q34 235 105 426q31 89 71 165t76 101z" />
    <glyph glyph-name="Y" unicode="Y" horiz-adv-x="833" 
d="M570 -25q-22 -1 -35 7t-52 30q-25 23 -32 33q-15 12 -15 29t40 111t135 243q94 150 137 211q-26 -25 -88 -78t-122 -105q-60 -53 -86 -53t-75 35q-25 31 -31 40t-8 24q-12 135 113 325q49 82 131 185q106 119 163 174q15 14 47 3t56 -34q29 -18 45 -46t2 -42
q-207 -245 -313 -401q-75 -119 -56 -138q14 -14 338 277q92 127 180 231q87 98 140 133q16 10 48 0q75 -23 103 -84q14 -29 -6 -49q-194 -194 -461 -590q-126 -200 -151 -282q-4 -20 -1 -28q2 -8 24 -5q22 4 22 -6t-57 -64q-37 -33 -76 -57q-37 -29 -59 -29z" />
    <glyph glyph-name="Z" unicode="Z" horiz-adv-x="884" 
d="M710 934q-108 0 -148 2t-52 17t-6 46q0 51 41 115q20 20 37 19q155 -19 387 -19q263 16 322 41q59 24 69 12q12 -9 10 -33t-9 -41q-19 -46 -155 -83q44 -56 15 -104q-82 -137 -562 -470q-141 -98 -173 -121t-84 -59t-68 -49q251 42 384 47t146 -12q22 -27 -33 -136
q-25 -42 -51 -70t-43 -26q-158 19 -346 19q-218 -16 -278 -41q-60 -26 -77 -8t-23 61t22 68q59 39 151 63q-41 30 -22 49q144 125 256 216t172 145q183 147 290 250q107 104 136 137q-200 -35 -308 -35z" />
    <glyph glyph-name="a" unicode="a" horiz-adv-x="593" 
d="M209 205q-18 -47 -13 -52t21 13t45 44q29 27 54 55q26 28 40 42l86 92q55 84 119 170q76 94 113 133q-41 4 -88 -34q-37 -25 -111 -95q-172 -190 -266 -368zM747 766q11 0 44 -8q6 -4 13 -7t16 -9t25 -14q38 -21 23 -46q-6 -6 -21 -26t-27 -33t-36 -47q-25 -34 -35 -48
t-55 -76t-61 -88q-16 -24 -38 -56t-67 -115q-18 -39 -13 -45t48 12q18 4 23 2q6 -4 -28 -45t-56 -58q-21 -18 -60 -47q-20 -12 -36 -12q-33 0 -78 35q-37 37 -37 60q0 47 47 130q-48 -54 -71 -77l-47 -47q-33 -33 -89 -83q-25 -18 -47 -18t-60 34t-38 63q0 58 92 227
q90 153 221 305q152 161 268 182q30 7 53 -10t34 -26t20 -16t28 -26q34 33 45 33z" />
    <glyph glyph-name="b" unicode="b" horiz-adv-x="643" 
d="M373 250q47 53 126 156t126 183q47 79 40 88t-78 -61q-71 -69 -120 -124q-51 -66 -94 -111q-41 -53 -82 -101t-60 -77l-45 -78q33 -6 79 28t108 97zM756 813q44 0 82 -35q36 -35 36 -59t-26 -88q-31 -57 -74 -135q-76 -114 -124 -180t-109 -132q-49 -57 -127 -123
q-104 -75 -156 -57q-48 23 -63 38l-24 24q-9 8 -13 12q-50 -78 -64 -78q-35 0 -78 35q-38 38 -34 63q18 96 178 342q68 102 162 232q354 461 450 557q21 21 98 -12q18 -12 43 -37q12 -25 0 -41l-143 -172q-329 -408 -451 -586q93 119 242 274q74 74 121 111q52 47 74 47z
" />
    <glyph glyph-name="c" unicode="c" horiz-adv-x="544" 
d="M184 504q102 144 210 225q60 45 96 59q37 14 77 3q41 -6 83 -30q93 -53 91 -95q0 -23 -16 -76q-12 -29 -45 -94q-75 -112 -143 -146q-27 -12 -54 -6q-31 0 -55 12q-18 4 -39 21q-12 12 -2 22t63 60t99 107q83 101 80 122q-4 4 -45 -24q-71 -48 -195 -201
q-108 -145 -142 -230t-32 -118t36 -37t101 35q66 38 130 87t70 37q5 -11 -18 -35t-43 -43t-28 -28q-68 -53 -82 -61q-31 -25 -74 -46q-43 -22 -63 -24t-54 4t-59 21q-69 29 -80 71q-28 110 49 266q31 66 84 142z" />
    <glyph glyph-name="d" unicode="d" horiz-adv-x="612" 
d="M272 315q-91 -147 -78 -160q12 -12 130 121q61 61 111 120t110 118l131 188q-35 6 -91 -32t-106 -92q-82 -76 -207 -263zM470 18q-28 -18 -55 -18q-28 0 -64 34q-37 34 -39 58q-2 45 106 225q-123 -138 -167 -181q-44 -42 -92 -89t-62 -47q-32 0 -77 35q-36 36 -36 64
q0 56 92 225q110 187 223 305q51 59 131 121q70 49 135 61q18 4 48 -9t46 -29q17 -17 26 -25t13 -13q76 106 136 183q104 143 221 270q39 45 54 48t46 -3q37 -12 53 -25q63 -33 35 -69q-236 -263 -493 -631q-130 -184 -193 -307q-37 -67 -9 -53q9 4 15 6t21 8t20 1
q6 -5 -8 -22q-53 -74 -126 -123z" />
    <glyph glyph-name="e" unicode="e" horiz-adv-x="540" 
d="M301 352q58 9 156 107q109 104 166 203q14 24 11 26t-30 -12q-91 -64 -162 -146q-94 -101 -141 -178zM573 791q87 -13 148 -74q27 -27 23 -57q-9 -73 -123 -221q-115 -149 -209 -175q-47 -11 -133 53q-51 -95 -63 -165t40 -74q32 0 92 33t80 48t34 24l31 21q17 11 35 24
t25 8q12 -12 -86 -105q-143 -121 -209 -130t-115 15t-67 40q-49 41 -23 166t123 278q99 141 209 226q110 84 188 65z" />
    <glyph glyph-name="f" unicode="f" horiz-adv-x="294" 
d="M741 881q36 0 -2 -56q-32 -53 -69 -53h-45q-274 -341 -424 -618q-21 -36 -50 -90q-30 -54 -36 -64q-25 -53 -41 -53q-38 0 -78 34q-39 34 -39 61q0 57 133 286q68 109 139 217q80 115 166 227h-10q-23 0 -15 28t34 54t51 27h26q104 127 203 221q90 90 168 127q31 14 84 2
t117 -72q23 -33 23 -59q-2 -107 -83 -199q-52 -60 -123 -53q-71 6 -84 26q-12 12 6 31t45 44q27 24 33 34t19 25t45 68q32 54 22 60t-38 -24q-28 -32 -61 -70t-57 -64q-24 -28 -85 -97h26z" />
    <glyph glyph-name="g" unicode="g" horiz-adv-x="616" 
d="M276 315q-90 -149 -82 -159q9 -11 117 104q31 31 106 112t103 111q78 104 98 132t58 73q-67 23 -193 -110q-94 -91 -207 -263zM798 797q15 0 33 -11q23 -6 47 -21q56 -35 31 -52q-50 -45 -147 -187q-57 -75 -150 -222t-77 -157q6 1 36 17t41 16q2 -4 -24 -35
q-194 -204 -328 -426q-61 -100 -89 -145t-43 -45t-39 10t-38 27q-34 26 -36 63t85 191t133 225q55 96 129 205l-86 -92q-61 -67 -141 -138q-31 -20 -40 -20t-41 14t-56 52q-10 20 -10 40q0 48 92 218q110 187 223 305q51 59 131 121q68 49 117 58t92 -22l37 -30l29 -29
q20 25 47 47t42 23z" />
    <glyph glyph-name="h" unicode="h" horiz-adv-x="585" 
d="M88 0q-40 0 -77 37q-36 37 -34 61q18 94 179 342q68 102 161 232q344 448 453 557q21 21 98 -12q68 -47 41 -78q-349 -421 -526 -660q-88 -123 -135 -200q132 167 313 354q168 164 213 164q18 0 37 -11q61 -16 78 -47q12 -14 -3 -30q-36 -38 -124 -164q-54 -67 -110 -150
q-56 -82 -70 -100q-47 -79 -65 -109t-7 -41q2 -3 17 5t31 11t22 0q4 -3 -10 -21t-32 -36t-55 -57q-8 -6 -47 -35q-23 -12 -38 -12t-46 13t-57 53q-10 20 -10 50q0 46 114 221t164 236q-66 -66 -117 -127q-93 -97 -199 -242q-106 -146 -128 -181v2q-17 -25 -31 -25z" />
    <glyph glyph-name="i" unicode="i" horiz-adv-x="299" 
d="M770 950q-133 -145 -201 -119q-65 13 -82 50q-10 16 4 31t56 63q41 47 78 74q50 45 123 4q16 -5 31 -21t15 -34t-24 -48zM472 797q17 0 38 -11q16 -4 42 -18t34 -29q12 -14 2 -26q-35 -43 -47 -62q-95 -107 -260 -356q-11 -18 -31 -52t-29 -48q-18 -43 -14 -47t33 7
q29 12 37 8q7 -4 -28 -46q-37 -41 -57 -59t-59 -46q-23 -12 -48 -12t-64 33t-39 64q0 30 30 96q66 125 121 203q56 79 68 98q151 200 203 252q51 51 68 51z" />
    <glyph glyph-name="j" unicode="j" horiz-adv-x="325" 
d="M815 1000q0 -16 -22 -50q-57 -62 -101 -91q-43 -28 -60 -32t-43 3q-63 17 -79 51q-10 16 -1 26q38 42 50 57t42 45t46 40q25 25 64 20q39 -6 57 -16q16 -4 35 -23q12 -14 12 -30zM492 797q18 0 36 -11q57 -15 80 -49q12 -16 -4 -29q-22 -18 -96 -117q-73 -98 -126 -179
t-87 -133q-73 -125 -64 -132l34 17t46 16q2 -4 -24 -35q-194 -204 -328 -426q-63 -104 -86 -137q-29 -53 -45 -53t-40 10t-38 27q-39 29 -39 64t104 223t270 436q165 248 243 342q46 66 96 116t68 50z" />
    <glyph glyph-name="k" unicode="k" horiz-adv-x="538" 
d="M349 0q-15 0 -49 14t-49 43t-15 44t26 59t50 84q26 40 71 112q25 45 16 54t-104 -87q-95 -97 -121 -155l-12 -21q-20 -36 -44 -89t-46 -56q-26 -5 -62 35q-14 11 -24 31t-9 30q18 94 179 342q68 102 161 232q344 448 453 557q21 21 98 -12q68 -47 41 -78
q-193 -233 -328 -390t-282 -366q8 6 45 35t62 45q72 63 93 87t58 73q37 43 61 82q6 6 43 53t52 49q27 12 72 -18q81 -53 59 -74q-22 -22 -45 -47q-17 -12 -75 -67q-58 -54 -89 -77q-63 -59 -93 -59t-59 -12q85 -22 99 -74q2 -12 -22 -54l-48 -84t-37 -57q-18 -33 -15 -37
q3 -5 18 3q40 20 49 13q13 -10 -93 -116q-8 -6 -47 -35q-23 -12 -38 -12z" />
    <glyph glyph-name="l" unicode="l" horiz-adv-x="294" 
d="M95 0q-15 0 -49 14t-49 43t-15 49t30 87q85 166 197 327q27 43 74 109q47 65 61 88q135 180 188 253t189 218q47 47 60 49t44 -4q37 -12 54 -25q20 -10 39 -32q12 -18 -5 -37q-144 -160 -344 -422q-186 -254 -268 -389q-37 -56 -69 -116t-28 -64t20 2q16 8 32 11t20 0
q10 -8 -96 -114q-8 -6 -47 -35q-23 -12 -38 -12z" />
    <glyph glyph-name="m" unicode="m" horiz-adv-x="901" 
d="M281 116q0 60 170 316q49 72 98 135q-53 -55 -119 -125q-82 -94 -121 -143q-92 -123 -112 -147q-68 -96 -86 -129q-7 -5 -13 -17t-25 -4t-38 27q-23 18 -35 41q-16 24 -16 48t30 84q100 196 297 445q63 74 99 107q41 43 58 43t38 -11q20 -4 48 -22q56 -36 34 -51
q-16 -23 -68 -70q-106 -112 -205 -247q-98 -136 -147 -216q80 109 166 213q109 125 178 199q203 203 252 205q18 0 39 -11q20 -4 48 -22q56 -36 34 -51q-6 -6 -29 -30t-82 -86t-160 -199q-100 -138 -149 -218q171 232 357 424q80 82 147 137q68 55 92 56h2q18 0 60 -18
t53 -42q12 -14 -3 -29q-39 -39 -124 -163q-134 -167 -210 -302q-19 -34 -28 -48q-18 -43 -14 -47t33 7q29 12 37 8q7 -4 -28 -46q-37 -41 -57 -59t-59 -46q-23 -12 -48 -12t-63 32t-40 72q-2 39 87 191q110 172 187 272q-118 -118 -232 -260q-87 -99 -198 -268l-17 -29
q-9 -16 -31 -8t-32 20t-41 48q-14 28 -14 46z" />
    <glyph glyph-name="n" unicode="n" horiz-adv-x="604" 
d="M-12 118q0 24 30 84q100 196 297 445q63 74 99 107q41 43 58 43t38 -11q20 -4 48 -22q56 -36 34 -51q-6 -6 -29 -30t-82 -86t-160 -199q-100 -138 -149 -218q80 109 166 213q109 125 178 199q203 203 252 205h2q18 0 37 -11q16 -4 42 -20t36 -29q8 -16 0 -24l-49 -62
q-30 -36 -80 -106q-41 -51 -92 -127q-33 -43 -86 -123q-47 -79 -65 -109t-7 -41q2 -3 20 5q70 28 39 -9q-12 -14 -39 -46t-96 -83q-20 -12 -36 -12q-34 0 -79 35q-36 36 -36 74t88 186q102 159 186 272q-131 -131 -240 -268q-92 -123 -112 -147q-68 -96 -86 -129
q-7 -5 -13 -17t-25 -4t-38 27q-23 18 -35 41q-16 24 -16 48z" />
    <glyph glyph-name="o" unicode="o" horiz-adv-x="591" 
d="M344 209q91 106 178 242q86 135 106 185t6 59q-15 9 -81 -53t-180 -228q-33 -45 -103 -152q-101 -176 -75 -190q27 -19 149 137zM725 688q29 -34 35 -65t-15 -95q-31 -76 -87 -174t-175 -227q-136 -131 -194 -139q-59 -8 -123 26t-94 56t-36 54q-12 71 66 230
q79 154 189 281q61 66 110 100q55 43 95 50t78 -6q88 -29 151 -91z" />
    <glyph glyph-name="p" unicode="p" horiz-adv-x="630" 
d="M485 512q-126 -132 -184 -211q-57 -80 -69 -97q-12 -16 -17 -24q-4 -8 -16 -26t-19 -29q33 -8 86 32t99 93q88 88 197 250q110 162 103 171q-20 25 -180 -159zM750 813q48 0 81 -35q39 -35 39 -59t-26 -88q-92 -171 -185 -291q-45 -66 -122 -156q-80 -82 -136 -127
t-100 -54t-81 18q-37 26 -68 59q-142 -214 -209 -361q-15 -33 -11 -35t34 8q30 11 35 8t-11 -27t-35 -42q-8 -12 -45 -49q-59 -51 -81 -51q-40 0 -79 31q-41 41 -42 74t73 174q75 140 115 206t111 176t117 175t123 177t159 197q41 48 59 53t51 -7t53 -48q7 -18 -15 -45
t-49 -57q-27 -29 -53 -61t-36 -44l-68 -90q-29 -41 -43 -71v-2q23 33 146 174t201 205q78 65 98 65z" />
    <glyph glyph-name="q" unicode="q" horiz-adv-x="618" 
d="M479 582q-110 -114 -205 -263q-95 -150 -82 -165q11 -13 117 108q158 165 209 223q118 159 156 203q-35 16 -85 -18t-110 -88zM23 -174q-16 0 -29 8t11 46q25 38 44 50q20 16 60 17h59q45 80 90 147q31 53 100 156q-31 -31 -74 -77t-91 -95q-49 -45 -62 -58
q-31 -20 -40 -20q-27 0 -71 35q-36 36 -36 64q0 56 92 225q110 187 223 305q51 59 131 121q131 92 201 42q42 -31 76 -65q51 61 70 67t47 -2q68 -17 89 -53q14 -16 -2 -37q-160 -191 -288 -387q-134 -191 -244 -368h86q35 0 35 -21l-8 -18q-8 -8 -16 -24t-42 -40
q-18 -18 -59 -18h-66q-75 -138 -61 -143q2 -2 31 9t35 8q16 -10 -93 -118q-59 -51 -81 -51q-21 0 -40 10q-18 4 -48 32t-29 52q-5 43 77 201h-77z" />
    <glyph glyph-name="r" unicode="r" horiz-adv-x="618" 
d="M470 797q17 0 38 -11q20 -4 48 -22q56 -36 34 -51q-103 -103 -151 -160q-48 -58 -132 -168q-68 -96 -123 -180q63 86 150 188q112 125 170 187t130 126t109 85q10 4 39 8q68 0 109 -35q23 -16 33 -47q3 -11 -17 -34t-30 -35t-17 -21l-65 -66q-133 -133 -126 -140
q3 -3 34 6q30 9 35 5t-50 -65q-42 -42 -94 -80q-35 -21 -65 -6q-31 14 -50 28q-35 35 -36 54q-1 18 20 55q68 92 101 136q34 44 48 69q-122 -107 -399 -451q-79 -105 -109 -162q-10 -16 -32 -8t-31 20q-10 12 -41 48q-14 30 -14 50q0 49 108 220q54 97 234 326q40 51 82 88
q43 43 60 43z" />
    <glyph glyph-name="s" unicode="s" horiz-adv-x="538" 
d="M10 188q0 42 31 90q51 81 129 72q76 -5 104 -39q16 -13 -6 -37t-46 -58t-39 -64t-12 -41q3 -12 17 -1t33 26q19 14 59 54t56 60q16 14 41 49q14 25 10 37q-2 16 -31 16q-86 0 -123 25q-84 43 -16 160q31 47 90 114q134 134 223 162q33 10 97 -15t110 -85q27 -29 29 -47
t-20 -72t-75 -107t-87 -67t-82 -4t-60 22q-16 8 -5 20t31 30q20 19 32 30l55 62q35 39 47 59q18 18 34 44t11 32q0 9 -47 -30t-80 -79q-35 -27 -123 -137q-18 -31 -24 -51q0 -18 22 -19q113 -6 146 -49t12 -104q-56 -138 -227 -223q-29 -17 -83 -9q-55 8 -105 32t-89 62
t-39 80z" />
    <glyph glyph-name="t" unicode="t" horiz-adv-x="294" 
d="M770 1070q52 -30 37 -54l-49 -55h69q17 -1 23 -5q20 -14 -64 -96q-23 -20 -53 -20h-74q-92 -117 -180 -242q-78 -104 -147 -217q-70 -104 -99 -164q-35 -61 -24 -72q2 -2 31 10t37 8q7 -4 -28 -46q-37 -41 -57 -59t-59 -46q-23 -12 -48 -12t-64 33t-39 64q0 57 142 282
t320 461h-65q-29 0 -23 20q19 46 62 86q20 14 51 15h72q51 63 94 100q37 39 60 39t75 -30z" />
    <glyph glyph-name="u" unicode="u" horiz-adv-x="583" 
d="M768 797q18 0 39 -11q10 -2 40 -19q54 -30 38 -54q-23 -23 -49 -62q-63 -71 -172 -233q-33 -43 -86 -123q-47 -79 -65 -109t-7 -41q2 -3 20 5q70 28 39 -9q-12 -14 -39 -46t-96 -83q-20 -12 -36 -12q-34 0 -79 35q-36 35 -36 59t12 56l-31 -31q-52 -52 -81 -72t-36 -27
q-35 -20 -49 -20t-48 14t-49 43t-15 49t30 87q122 231 303 450q49 63 95 109t62 45q17 0 36 -11q61 -16 78 -47q12 -14 -3 -30q-36 -38 -124 -164q-54 -67 -110 -150q-56 -82 -70 -100q-47 -79 -65 -109t-8 -38t49 23q41 32 69 68t32 37q68 116 234 340q145 181 178 181z
" />
    <glyph glyph-name="v" unicode="v" horiz-adv-x="616" 
d="M324 209q45 63 106 143t121 165t125 178q66 92 78 107t36 12q62 -8 99 -60q16 -27 4 -47q-48 -93 -188 -297q-96 -122 -136 -172t-102 -107q-55 -57 -109 -90q-53 -39 -88 -41q-12 -2 -52 4t-77 21q-95 27 -106 88q-11 69 125 317q140 239 282 387q23 23 55 15t56 -29
q25 -18 38 -46q13 -29 -4 -51t-65 -84q-50 -64 -150 -213t-123 -191q-24 -42 -52 -99q-15 -43 -7 -50t39 27t95 113z" />
    <glyph glyph-name="w" unicode="w" horiz-adv-x="970" 
d="M688 209q18 27 71 95t181 252q127 183 178 246q12 15 36 12q54 -7 99 -60q14 -27 2 -47q-37 -73 -80 -139q-176 -273 -344 -437q-66 -63 -108 -90q-53 -39 -79 -41q-64 -5 -138 25q-139 40 -100 139q4 18 24 74q-78 -100 -126 -152t-78 -60q-64 -19 -111 7q-27 8 -52 28
q-23 23 -27 50t10 75q15 48 46 104q168 307 373 527q23 23 55 15t53 -29q23 -16 41 -47q12 -29 -2 -45q-70 -90 -87 -114t-81 -112q-193 -266 -227 -350q-18 -39 -12 -45t33 12q91 92 222 268q13 18 64 85q51 68 120 162q78 106 98 129l63 71q18 23 47 10q20 -4 57 -28
q64 -60 44 -87q-268 -360 -339 -495q-25 -41 -48 -90t-14 -56t41 27t95 111z" />
    <glyph glyph-name="x" unicode="x" horiz-adv-x="618" 
d="M752 803q25 33 92 -10q29 -16 41 -41q16 -23 4 -45q-166 -281 -357 -342q27 -10 37 -25q48 -36 -4 -147q-31 -74 -121 -177q-37 -44 -108 13q-23 20 -41 49q-12 31 2 45q98 123 129 176q41 55 12 66q-40 10 -213 -207q-74 -98 -90 -120q-17 -22 -41 -20q-24 4 -55 22
t-43 42q-18 25 -2 47q87 136 176 205q33 27 80 47q53 16 80 22q-8 4 -47 39q-19 25 -25 45q-17 52 29 127q46 105 151 203q23 23 56 15t55 -29q25 -18 38 -46t-1 -46q-51 -66 -87 -111t-58 -81q-21 -35 -29 -63t7 -38t48 24q29 25 84 90q68 91 201 271z" />
    <glyph glyph-name="y" unicode="y" horiz-adv-x="600" 
d="M-18 97q0 30 30 96q66 125 121 203q56 79 68 98q229 303 270 303q18 0 39 -11q16 -4 42 -18t34 -29q12 -14 2 -26q-35 -43 -47 -62q-95 -107 -260 -356q-11 -18 -31 -52t-29 -48q-18 -43 -12 -49t50 29q44 36 85 87q90 135 169 244q211 291 257 291q18 0 37 -11
q23 -6 47 -21q56 -36 31 -52q-53 -48 -148 -187q-57 -75 -150 -222t-77 -157q6 1 36 17t42 16q2 -4 -25 -35q-191 -201 -327 -426q-61 -100 -89 -145q-27 -45 -43 -45t-40 10t-37 27q-37 28 -37 52q0 25 18 73q72 157 230 405q-107 -96 -143 -96t-74 33q-39 34 -39 64z" />
    <glyph glyph-name="z" unicode="z" horiz-adv-x="526" 
d="M-111 -50q0 21 15 88t69 138q29 33 63 48t60 9q31 0 56 -12q22 -6 36 -19t2 -26q-102 -92 -184 -242q-12 -22 -10 -26t54 30t165 152q88 99 112 159q23 60 17 85q-22 62 -182 -32q-40 -24 -47 -20q-8 3 -13 9q0 27 21 43q94 74 176 121q113 72 197 133q-72 -23 -133 -13
t-70 41q-4 14 2 48q25 48 34 64t36 46q47 66 98 49q25 -8 53 -32q59 -59 29 -97q-53 -55 -35 -68q27 -19 137 91q23 23 74 84q13 16 37 12q56 -9 98 -63q12 -27 2 -45q-70 -113 -199 -177q-75 -46 -253 -108q74 -24 96 -78q20 -80 -8 -163q-52 -156 -215 -273
q-147 -100 -213 -78q-39 6 -82 28t-69 47q-26 26 -26 47z" />
    <glyph glyph-name="Aacute" unicode="&#xc1;" horiz-adv-x="884" 
d="M1406 1247q-26 0 -120 -11l-145 -17q-53 -7 -61 -9t-20 4q-28 15 -13 37q5 15 27 23t54 23q31 15 92 42q62 27 85 37q198 87 219 66q23 -20 -21 -111q-29 -41 -49 -63t-48 -21zM530 498q140 -6 170 -2h9q4 2 10 2q119 254 242 465q-131 -123 -244 -242
q-102 -115 -187 -223zM287 401l-155 -8h-44q-38 0 -92 99q-12 38 -10 62t34 14t60 -14q28 -5 59 -10t51 -9t195 -25q175 194 453 453q100 94 179 154q79 61 92 63q23 4 99 -37q20 -16 41 -39q12 -23 2 -39q-160 -231 -294 -517t-154 -378q-16 -49 -6 -55q2 -2 14 2l29 6
q12 6 20 0q6 0 -9 -28t-58 -79q-43 -43 -76 -40t-82 28q-25 8 -37 25q-14 11 -21 43t29 140t84 222q-4 0 -48 -6t-175 -16q-66 -90 -139 -205l-123 -203q-21 -34 -117 -39q-35 -2 -59 8q-27 8 -19 27q59 145 277 401z" />
    <glyph glyph-name="Acircumflex" unicode="&#xc2;" horiz-adv-x="884" 
d="M1303 1393q8 24 0 20t-39 -31q-116 -102 -187 -143q-18 -6 -14 4q0 4 6 10q14 28 78 90l53 54q56 56 84 77t90 21q69 5 79 -25q11 -32 7 -72t-16 -84q-30 -111 -48 -129q-17 -17 -81 -1q-61 23 -67 39q-6 17 8 48t18 43t12 28q8 18 17 51zM530 498q140 -6 170 -2h9
q4 2 10 2q119 254 242 465q-131 -123 -244 -242q-102 -115 -187 -223zM287 401l-155 -8h-44q-38 0 -92 99q-12 38 -10 62t34 14t60 -14q28 -5 59 -10t51 -9t195 -25q175 194 453 453q100 94 179 154q79 61 92 63q23 4 99 -37q20 -16 41 -39q12 -23 2 -39
q-160 -231 -294 -517t-154 -378q-16 -49 -6 -55q2 -2 14 2l29 6q12 6 20 0q6 0 -9 -28t-58 -79q-43 -43 -76 -40t-82 28q-25 8 -37 25q-14 11 -21 43t29 140t84 222q-4 0 -48 -6t-175 -16q-66 -90 -139 -205l-123 -203q-21 -34 -117 -39q-35 -2 -59 8q-27 8 -19 27
q59 145 277 401z" />
    <glyph glyph-name="Adieresis" unicode="&#xc4;" horiz-adv-x="884" 
d="M530 498q140 -6 170 -2h9q4 2 10 2q119 254 242 465q-131 -123 -244 -242q-102 -115 -187 -223zM1511 1378q0 -18 -24 -43q-31 -44 -86 -82q-56 -39 -72 -43t-31 2q-36 0 -69 25q-12 6 -25 23q-71 -62 -113 -50q-75 21 -88 45q-11 25 -1 38t24 27t26 32q12 16 56 56
q43 40 63 44q39 4 77 -11t55 -42q47 47 67 51t46 2t49 -15q24 -13 35 -27t11 -32zM287 401l-155 -8h-44q-38 0 -92 99q-12 38 -10 62t34 14t60 -14q28 -5 59 -10t51 -9t195 -25q175 194 453 453q100 94 179 154q79 61 92 63q23 4 99 -37q20 -16 41 -39q12 -23 2 -39
q-160 -231 -294 -517t-154 -378q-16 -49 -6 -55q2 -2 14 2l29 6q12 6 20 0q6 0 -9 -28t-58 -79q-43 -43 -76 -40t-82 28q-25 8 -37 25q-14 11 -21 43t29 140t84 222q-4 0 -48 -6t-175 -16q-66 -90 -139 -205l-123 -203q-21 -34 -117 -39q-35 -2 -59 8q-27 8 -19 27
q59 145 277 401z" />
    <glyph glyph-name="Ccedilla" unicode="&#xc7;" horiz-adv-x="833" 
d="M246 -41h35l24 -8q8 -6 4 -10q-59 -59 -112 -162q0 -14 32 12q75 75 144 189q-61 8 -111 36t-57 68q-34 149 49 377q33 91 100 203q139 233 338 380q105 76 211 115q35 14 90 11q55 -4 107 -26t84 -50q64 -57 -13 -189q-86 -163 -266 -235q-90 -33 -184 0q-37 12 -49 48
q-26 78 16 134q18 23 45 14q115 -43 228 -24t129 63q6 20 -25 45q-35 23 -109 38q-74 16 -166 -28q-183 -87 -326 -307q-143 -219 -108 -366q12 -80 95 -117q49 -23 96 -23q85 -10 194 29q33 12 63 33t36 13q6 -9 -15 -29q-76 -82 -145 -123q-120 -86 -240 -95l27 -71
q14 -33 -92 -166q-27 -27 -55 -41t-127 20q-51 27 -76 44t-6 59q13 58 46 91q34 32 51 40t38 8z" />
    <glyph glyph-name="Egrave" unicode="&#xc8;" horiz-adv-x="909" 
d="M1282 1233q6 -22 -24 -28q-16 -3 -36 8t-65 29q-46 18 -72 32q-68 29 -90 41q-45 17 -73 33t-68 38q-39 22 -33 35q2 12 35 25q33 6 74 12q57 0 90 -2t52 -23t55 -53q35 -32 69 -66t76 -63q6 -4 10 -18zM104 148q34 72 122 215q89 144 200 292q66 92 123 158
q51 66 98 113l-63 -19q-31 -12 -47 2q-32 41 -19 97q6 27 17 32q78 55 276 88q102 18 180 29q127 12 174 12q80 6 133 0q54 0 66 -14q22 -27 8 -125q-10 -39 -20 -63q-16 -27 -31 -25q-90 15 -265 19q-175 3 -298 -15q20 -12 41 -43q14 -27 -4 -47q-76 -88 -95 -104
q-14 -18 -43 -54t-43 -53q105 43 220 55t137 -10q8 -8 5 -52t-30 -91q-18 -25 -37 -25q-177 -6 -313 -42q-44 -12 -60 -1q-16 10 -26 29q-86 -121 -141 -215q-51 -98 -62 -158q85 39 287 88q104 19 148 23t62 -10q39 -29 51 -94q11 -64 3 -90t-39 -19q-207 37 -481 -58
q-67 -16 -86 33q-35 -23 -66 -31q-45 0 -80 29q-36 22 -36 47t34 97z" />
    <glyph glyph-name="Eacute" unicode="&#xc9;" horiz-adv-x="909" 
d="M915 1253q-5 32 24 43q29 10 63 28t83 36q30 20 103 47q74 28 132 51t73 9q30 -25 -21 -111q-46 -86 -92 -84q-45 1 -183 -17q-137 -18 -145 -20t-20 4t-17 14zM104 148q34 72 122 215q89 144 200 292q66 92 123 158q51 66 98 113l-63 -19q-31 -12 -47 2q-32 41 -19 97
q6 27 17 32q78 55 276 88q102 18 180 29q127 12 174 12q80 6 133 0q54 0 66 -14q22 -27 8 -125q-10 -39 -20 -63q-16 -27 -31 -25q-90 15 -265 19q-175 3 -298 -15q20 -12 41 -43q14 -27 -4 -47q-76 -88 -95 -104q-14 -18 -43 -54t-43 -53q105 43 220 55t137 -10q8 -8 5 -52
t-30 -91q-18 -25 -37 -25q-177 -6 -313 -42q-44 -12 -60 -1q-16 10 -26 29q-86 -121 -141 -215q-51 -98 -62 -158q85 39 287 88q104 19 148 23t62 -10q39 -29 51 -94q11 -64 3 -90t-39 -19q-207 37 -481 -58q-67 -16 -86 33q-35 -23 -66 -31q-45 0 -80 29q-36 22 -36 47
t34 97z" />
    <glyph glyph-name="Ecircumflex" unicode="&#xca;" horiz-adv-x="909" 
d="M1137 1438q-6 -2 -42 -32t-79 -64q-42 -34 -60 -48t-38 -23t-21 -6q-2 3 4 15q31 41 82 92l53 53q65 65 84 78q20 13 88 21q70 0 79 -28t7 -71q-16 -107 -45 -168q-12 -41 -21 -49t-37 -5t-43 8q-58 19 -67 40q-1 8 13 48t24 61q14 43 21 59q4 21 -2 19zM104 148
q34 72 122 215q89 144 200 292q66 92 123 158q51 66 98 113l-63 -19q-31 -12 -47 2q-32 41 -19 97q6 27 17 32q78 55 276 88q102 18 180 29q127 12 174 12q80 6 133 0q54 0 66 -14q22 -27 8 -125q-10 -39 -20 -63q-16 -27 -31 -25q-90 15 -265 19q-175 3 -298 -15
q20 -12 41 -43q14 -27 -4 -47q-76 -88 -95 -104q-14 -18 -43 -54t-43 -53q105 43 220 55t137 -10q8 -8 5 -52t-30 -91q-18 -25 -37 -25q-177 -6 -313 -42q-44 -12 -60 -1q-16 10 -26 29q-86 -121 -141 -215q-51 -98 -62 -158q85 39 287 88q104 19 148 23t62 -10
q39 -29 51 -94q11 -64 3 -90t-39 -19q-207 37 -481 -58q-67 -16 -86 33q-35 -23 -66 -31q-45 0 -80 29q-36 22 -36 47t34 97z" />
    <glyph glyph-name="Edieresis" unicode="&#xcb;" horiz-adv-x="909" 
d="M1343 1388q0 -18 -35 -60t-83 -74q-48 -33 -68 -37h-27q-6 2 -30 8q-41 10 -64 41q-23 -18 -55 -38t-68 -7q-65 14 -82 49q-11 16 -1 26q32 36 68 76q35 40 71 66q41 37 110 10q39 -14 56 -43q47 47 67 51q51 10 94 -14q16 -4 35 -23q12 -13 12 -31zM104 148
q34 72 122 215q89 144 200 292q66 92 123 158q51 66 98 113l-63 -19q-31 -12 -47 2q-32 41 -19 97q6 27 17 32q78 55 276 88q102 18 180 29q127 12 174 12q80 6 133 0q54 0 66 -14q22 -27 8 -125q-10 -39 -20 -63q-16 -27 -31 -25q-90 15 -265 19q-175 3 -298 -15
q20 -12 41 -43q14 -27 -4 -47q-76 -88 -95 -104q-14 -18 -43 -54t-43 -53q105 43 220 55t137 -10q8 -8 5 -52t-30 -91q-18 -25 -37 -25q-177 -6 -313 -42q-44 -12 -60 -1q-16 10 -26 29q-86 -121 -141 -215q-51 -98 -62 -158q85 39 287 88q104 19 148 23t62 -10
q39 -29 51 -94q11 -64 3 -90t-39 -19q-207 37 -481 -58q-67 -16 -86 33q-35 -23 -66 -31q-45 0 -80 29q-36 22 -36 47t34 97z" />
    <glyph glyph-name="Igrave" unicode="&#xcc;" horiz-adv-x="475" 
d="M851 1233q3 -4 8 -9q5 -4 8 -18t-3 -22t-22 -11t-33 9q-18 12 -53 32t-68 37t-80 47q-167 105 -162 132q4 20 28 28t73 17q51 0 74 -5q33 -2 47 -20q33 -41 41 -49q16 -25 57 -70q31 -41 46 -56q16 -15 22 -23t10 -11q4 -4 7 -8zM232 -25q-18 -1 -34 7t-55 30
q-25 23 -32 33q-15 12 -15 29t37 102t150 277q210 338 352 510q-153 -13 -170 12q-21 42 -23 102q4 31 13 43q6 18 26 15q96 -17 252 -17q165 15 208 37q42 22 51 7q16 -27 2 -78q-15 -52 -31 -67t-62 -36q-63 -66 -160 -184q-98 -131 -142 -197t-128 -213t-98 -227
q-2 -37 20 -31q41 9 25 -13t-49 -55q-43 -37 -78 -57q-41 -29 -59 -29z" />
    <glyph glyph-name="Iacute" unicode="&#xcd;" horiz-adv-x="475" 
d="M664 1200q-10 31 30 45q22 7 45 19t51 24t44 20t50 22q238 103 261 82q22 -20 -23 -109q-30 -41 -50 -63t-42 -21t-173 -17t-159 -20t-19 4t-15 14zM232 -25q-18 -1 -34 7t-55 30q-25 23 -32 33q-15 12 -15 29t37 102t150 277q210 338 352 510q-153 -13 -170 12
q-21 42 -23 102q4 31 13 43q6 18 26 15q96 -17 252 -17q165 15 208 37q42 22 51 7q16 -27 2 -78q-15 -52 -31 -67t-62 -36q-63 -66 -160 -184q-98 -131 -142 -197t-128 -213t-98 -227q-2 -37 20 -31q41 9 25 -13t-49 -55q-43 -37 -78 -57q-41 -29 -59 -29z" />
    <glyph glyph-name="Icircumflex" unicode="&#xce;" horiz-adv-x="475" 
d="M863 1379q-54 -44 -77 -62q-23 -17 -42 -33q-18 -16 -38 -26t-22 -6q-2 3 4 16q31 41 82 92l53 53q54 54 78 72t94 26q70 1 79 -27t2 -98t-40 -141q-12 -41 -21 -49t-37 -5t-43 8q-58 19 -67 40q-2 8 12 48t25 61q14 43 21 59q4 20 -2 18q-7 -2 -61 -46zM232 -25
q-18 -1 -34 7t-55 30q-25 23 -32 33q-15 12 -15 29t37 102t150 277q210 338 352 510q-153 -13 -170 12q-21 42 -23 102q4 31 13 43q6 18 26 15q96 -17 252 -17q165 15 208 37q42 22 51 7q16 -27 2 -78q-15 -52 -31 -67t-62 -36q-63 -66 -160 -184q-98 -131 -142 -197
t-128 -213t-98 -227q-2 -37 20 -31q41 9 25 -13t-49 -55q-43 -37 -78 -57q-41 -29 -59 -29z" />
    <glyph glyph-name="Idieresis" unicode="&#xcf;" horiz-adv-x="475" 
d="M1157 1388q0 -16 -22 -49q-112 -112 -164 -122h-29q-6 2 -22 6t-48 20q-12 10 -22 23q-72 -64 -125 -45q-64 14 -80 49q-10 16 -1 26t25 28q15 16 26 30q31 38 95 92q34 28 89 8t69 -49q47 47 81 53t66 -8q33 -14 47 -30t15 -32zM232 -25q-18 -1 -34 7t-55 30
q-25 23 -32 33q-15 12 -15 29t37 102t150 277q210 338 352 510q-153 -13 -170 12q-21 42 -23 102q4 31 13 43q6 18 26 15q96 -17 252 -17q165 15 208 37q42 22 51 7q16 -27 2 -78q-15 -52 -31 -67t-62 -36q-63 -66 -160 -184q-98 -131 -142 -197t-128 -213t-98 -227
q-2 -37 20 -31q41 9 25 -13t-49 -55q-43 -37 -78 -57q-41 -29 -59 -29z" />
    <glyph glyph-name="Ograve" unicode="&#xd2;" 
d="M1202 1167q-21 -21 -46 -5q-25 17 -61 36t-145 85q-109 65 -137 93q-29 29 -26 43t32 27q37 12 68 12q27 4 68 -1t53 -21q2 -2 25 -33t81 -98q57 -66 72 -82q28 -29 16 -56zM459 602q-61 -98 -98 -223t8 -182q30 -42 74 -40q45 3 87 19q92 43 170 127q165 165 267 402
q80 181 36 234q-44 52 -143 52q-47 -6 -78 -26q-94 -57 -180 -159t-143 -204zM643 78q-129 -113 -249 -113q-98 0 -168 65q-69 65 -33 216q37 178 176 405q76 123 143 201q68 90 160 172q149 141 271 148q123 7 194 -80q55 -70 -13 -258q-73 -210 -193 -401
q-52 -83 -140 -200q-76 -94 -148 -155z" />
    <glyph glyph-name="Oacute" unicode="&#xd3;" 
d="M872 1200q-22 15 -14 33q8 19 36 28t134 62q92 39 118 51t72 28q46 15 78 25t43 -1q12 -11 3 -47t-27 -60q-14 -31 -41 -59t-39 -28q-11 0 -103 -7q-92 -8 -162 -17q-70 -10 -76 -12q-7 -2 -22 4zM459 602q-61 -98 -98 -223t8 -182q30 -42 74 -40q45 3 87 19
q92 43 170 127q165 165 267 402q80 181 36 234q-44 52 -143 52q-47 -6 -78 -26q-94 -57 -180 -159t-143 -204zM643 78q-129 -113 -249 -113q-98 0 -168 65q-69 65 -33 216q37 178 176 405q76 123 143 201q68 90 160 172q149 141 271 148q123 7 194 -80q55 -70 -13 -258
q-73 -210 -193 -401q-52 -83 -140 -200q-76 -94 -148 -155z" />
    <glyph glyph-name="Ocircumflex" unicode="&#xd4;" 
d="M1135 1368q8 24 0 20t-53 -42t-76 -63q-122 -95 -111 -64q0 4 6 10q12 24 78 90l53 53q56 56 84 77t90 21q68 5 79 -25t7 -71t-16 -85q-30 -111 -48 -129q-17 -17 -81 -1q-60 22 -65 36t11 59l21 57q12 25 21 57zM459 602q-61 -98 -98 -223t8 -182q30 -42 74 -40
q45 3 87 19q92 43 170 127q165 165 267 402q80 181 36 234q-44 52 -143 52q-47 -6 -78 -26q-94 -57 -180 -159t-143 -204zM643 78q-129 -113 -249 -113q-98 0 -168 65q-69 65 -33 216q37 178 176 405q76 123 143 201q68 90 160 172q149 141 271 148q123 7 194 -80
q55 -70 -13 -258q-73 -210 -193 -401q-52 -83 -140 -200q-76 -94 -148 -155z" />
    <glyph glyph-name="Otilde" unicode="&#xd5;" 
d="M1327 1391q0 -5 -6 -17t-15 -36t-28 -52q-16 -31 -43 -65q-27 -27 -51 -27q-99 0 -144 55q-16 25 -24 39q-7 21 -19 23q-14 2 -27 -12t-28 -62q-16 -29 -57 -33q-92 -18 -113 2q2 11 27 50q24 38 28 47q58 80 91 86q59 5 88 -9t51 -41q16 -29 22 -45q7 -16 21 -16t24 20
t15 25l18 37q14 24 60 37q37 4 73 6t37 -12zM459 602q-61 -98 -98 -223t8 -182q30 -42 74 -40q45 3 87 19q92 43 170 127q165 165 267 402q80 181 36 234q-44 52 -143 52q-47 -6 -78 -26q-94 -57 -180 -159t-143 -204zM643 78q-129 -113 -249 -113q-98 0 -168 65
q-69 65 -33 216q37 178 176 405q76 123 143 201q68 90 160 172q149 141 271 148q123 7 194 -80q55 -70 -13 -258q-73 -210 -193 -401q-52 -83 -140 -200q-76 -94 -148 -155z" />
    <glyph glyph-name="Odieresis" unicode="&#xd6;" 
d="M1374 1391q0 -25 -29 -61t-83 -74t-70 -42t-33 3q-21 0 -69 24q-12 10 -23 23q-8 -6 -47 -35q-43 -22 -77 -11q-115 37 -75 85q6 8 21 22q14 14 30 35t80 78q47 32 99 12q53 -20 67 -47q47 47 73 52t89 -13q47 -26 47 -51zM459 602q-61 -98 -98 -223t8 -182
q30 -42 74 -40q45 3 87 19q92 43 170 127q165 165 267 402q80 181 36 234q-44 52 -143 52q-47 -6 -78 -26q-94 -57 -180 -159t-143 -204zM643 78q-129 -113 -249 -113q-98 0 -168 65q-69 65 -33 216q37 178 176 405q76 123 143 201q68 90 160 172q149 141 271 148
q123 7 194 -80q55 -70 -13 -258q-73 -210 -193 -401q-52 -83 -140 -200q-76 -94 -148 -155z" />
    <glyph glyph-name="Ugrave" unicode="&#xd9;" horiz-adv-x="866" 
d="M1165 1176q-21 -21 -46 -5q-25 17 -59 35t-144 83q-110 66 -139 95q-30 30 -27 39q4 18 32 31q37 12 68 12q27 4 68 -1t53 -21l41 -51q100 -125 133 -158t20 -59zM626 -25q-20 0 -44 13l-43 24q-47 40 -47 61q0 46 83 195q-7 -7 -40 -36t-104 -96t-139 -116
q-67 -49 -81 -49q-14 1 -38 11t-36 26q-27 20 -39 62q-2 45 30 125q70 175 193 361t191 282q178 239 289 348q14 14 46 3t56 -34q29 -18 45 -46t2 -42q-199 -241 -319 -414q-195 -270 -326 -501q-25 -49 -19 -55t54 32q47 39 111 90t99 85q36 34 56 52l47 47
q197 335 467 656q68 79 119 110q16 10 48 0q71 -22 106 -84q12 -29 -9 -49q-160 -160 -323 -393q-51 -68 -159 -234t-128 -245q-6 -20 -3 -28t25 -5q22 4 21 -4q-10 -20 -55 -66q-43 -37 -78 -57q-38 -29 -58 -29z" />
    <glyph glyph-name="Uacute" unicode="&#xda;" horiz-adv-x="866" 
d="M961 1237q5 14 38 27q33 12 43 17t35 16t49 26q63 27 99 41q79 39 141 56t75 6t-1 -59t-68 -110q-25 -25 -37 -25q-56 2 -194 -16q-139 -18 -147 -20t-21 4q-26 13 -12 37zM626 -25q-20 0 -44 13l-43 24q-47 40 -47 61q0 46 83 195q-7 -7 -40 -36t-104 -96t-139 -116
q-67 -49 -81 -49q-14 1 -38 11t-36 26q-27 20 -39 62q-2 45 30 125q70 175 193 361t191 282q178 239 289 348q14 14 46 3t56 -34q29 -18 45 -46t2 -42q-199 -241 -319 -414q-195 -270 -326 -501q-25 -49 -19 -55t54 32q47 39 111 90t99 85q36 34 56 52l47 47
q197 335 467 656q68 79 119 110q16 10 48 0q71 -22 106 -84q12 -29 -9 -49q-160 -160 -323 -393q-51 -68 -159 -234t-128 -245q-6 -20 -3 -28t25 -5q22 4 21 -4q-10 -20 -55 -66q-43 -37 -78 -57q-38 -29 -58 -29z" />
    <glyph glyph-name="Ucircumflex" unicode="&#xdb;" horiz-adv-x="866" 
d="M1223 1440q-5 -2 -31 -24t-55 -44t-53 -40t-33 -29q-62 -46 -68 -36q-2 3 4 15q25 33 45 53q8 12 37 37l53 53q62 78 121 93q25 6 51 7q70 3 79 -26t7 -74q-12 -83 -35 -145q-24 -62 -36 -74t-73 7t-66 36q-6 17 16 72t29 75t11 32q4 14 -3 12zM626 -25q-20 0 -44 13
l-43 24q-47 40 -47 61q0 46 83 195q-7 -7 -40 -36t-104 -96t-139 -116q-67 -49 -81 -49q-14 1 -38 11t-36 26q-27 20 -39 62q-2 45 30 125q70 175 193 361t191 282q178 239 289 348q14 14 46 3t56 -34q29 -18 45 -46t2 -42q-199 -241 -319 -414q-195 -270 -326 -501
q-25 -49 -19 -55t54 32q47 39 111 90t99 85q36 34 56 52l47 47q197 335 467 656q68 79 119 110q16 10 48 0q71 -22 106 -84q12 -29 -9 -49q-160 -160 -323 -393q-51 -68 -159 -234t-128 -245q-6 -20 -3 -28t25 -5q22 4 21 -4q-10 -20 -55 -66q-43 -37 -78 -57
q-38 -29 -58 -29z" />
    <glyph glyph-name="Udieresis" unicode="&#xdc;" horiz-adv-x="866" 
d="M1468 1393q0 -16 -22 -50q-112 -112 -164 -122h-29q-6 2 -21 6t-48 20q-12 10 -23 23q-72 -64 -125 -45q-64 14 -80 49q-10 16 0 26q32 36 47 54q38 45 99 96q34 28 88 8q55 -20 70 -49q47 47 80 53t66 -8q34 -14 48 -30t14 -31zM626 -25q-20 0 -44 13l-43 24
q-47 40 -47 61q0 46 83 195q-7 -7 -40 -36t-104 -96t-139 -116q-67 -49 -81 -49q-14 1 -38 11t-36 26q-27 20 -39 62q-2 45 30 125q70 175 193 361t191 282q178 239 289 348q14 14 46 3t56 -34q29 -18 45 -46t2 -42q-199 -241 -319 -414q-195 -270 -326 -501
q-25 -49 -19 -55t54 32q47 39 111 90t99 85q36 34 56 52l47 47q197 335 467 656q68 79 119 110q16 10 48 0q71 -22 106 -84q12 -29 -9 -49q-160 -160 -323 -393q-51 -68 -159 -234t-128 -245q-6 -20 -3 -28t25 -5q22 4 21 -4q-10 -20 -55 -66q-43 -37 -78 -57
q-38 -29 -58 -29z" />
    <glyph glyph-name="Yacute" unicode="&#xdd;" horiz-adv-x="833" 
d="M915 1200q-5 32 24 43q29 10 63 28t83 36q20 13 52 26q33 13 47 19t46 18t90 35t73 9q30 -25 -21 -111q-46 -87 -88 -85q-20 0 -60 -4t-150 -16q-111 -12 -120 -15q-10 -3 -22 3t-17 14zM570 -25q-22 -1 -35 7t-52 30q-25 23 -32 33q-15 12 -15 29t40 111t135 243
q94 150 137 211q-26 -25 -88 -78t-122 -105q-60 -53 -86 -53t-75 35q-25 31 -31 40t-8 24q-12 135 113 325q49 82 131 185q106 119 163 174q15 14 47 3t56 -34q29 -18 45 -46t2 -42q-207 -245 -313 -401q-75 -119 -56 -138q14 -14 338 277q92 127 180 231q87 98 140 133
q16 10 48 0q75 -23 103 -84q14 -29 -6 -49q-194 -194 -461 -590q-126 -200 -151 -282q-4 -20 -1 -28q2 -8 24 -5q22 4 22 -6t-57 -64q-37 -33 -76 -57q-37 -29 -59 -29z" />
    <glyph glyph-name="Thorn" unicode="&#xde;" horiz-adv-x="1085" 
d="M1212 766q-50 43 -164 43q-114 -1 -203 -29t-132 -53q-174 -233 -277 -420q147 46 322 119q166 58 276 117t154 95t47 71q4 35 -23 57zM220 -25q-18 -1 -34 7t-55 30q-25 23 -36 34t-11 29t28 76t82 148t141 218t101 149q-38 45 -28 120q4 23 18 41q28 36 186 78
q175 222 205 250q29 27 41 30t39 -11q55 -29 82 -80q10 -27 -4 -43l-80 -93q271 27 342 -36q41 -41 69 -102t15 -107q-12 -46 -23 -62q-29 -51 -89 -98t-160 -115q-96 -55 -181 -98q-182 -85 -311 -135q-61 -18 -84 -15t-78 41q-35 -67 -31 -96q2 -10 17 -6q41 9 25 -13
t-50 -55q-43 -37 -77 -57q-41 -29 -59 -29z" />
    <glyph glyph-name="germandbls" unicode="&#xdf;" horiz-adv-x="620" 
d="M471 567q82 61 181 145t184 199l26 39q25 39 31 54q14 20 29 57q14 23 18 41t-2 19t-31 -23q-131 -139 -237 -275q-119 -147 -199 -256zM-43 50q0 18 27 87q165 336 469 711q182 216 266 288t125 88q75 30 149 -20q31 -16 60 -45q23 -33 22 -53q2 -104 -43 -207
q-47 -90 -123 -170q-151 -139 -364 -223q80 -19 101 -74q22 -55 -7 -133q-27 -88 -78 -156q-45 -72 -119 -143q-66 -68 -110 -92t-92 -19q-113 30 -113 50q-10 10 19 24t42 29q135 118 200 219q65 102 80 140q36 91 -24 89q-20 0 -38 -10q-14 -4 -48 -24
q-102 -154 -206 -328q-66 -127 -83 -132t-36 5q-31 8 -66 59q-10 22 -10 40z" />
    <glyph glyph-name="agrave" unicode="&#xe0;" horiz-adv-x="589" 
d="M949 926q3 -4 8 -9t9 -19t-3 -21q-6 -8 -22 -11t-34 9q-18 11 -53 31t-68 38t-80 47q-170 105 -161 131q4 20 33 29q20 8 67 16q51 0 79 -3q28 -2 52 -32t31 -38q16 -25 57 -70q30 -40 46 -56t22 -23t10 -11t7 -8zM209 205q-18 -47 -13 -52t21 13t45 44q29 27 54 55
q26 28 40 42l86 92q55 84 119 170q76 94 113 133q-41 4 -88 -34q-37 -25 -111 -95q-172 -190 -266 -368zM747 766q11 0 44 -8q6 -4 13 -7t16 -9t25 -14q38 -21 23 -46q-6 -6 -21 -26t-27 -33t-36 -47q-25 -34 -35 -48t-55 -76t-61 -88q-16 -24 -38 -56t-67 -115
q-18 -39 -13 -45t48 12q18 4 23 2q6 -4 -28 -45t-56 -58q-21 -18 -60 -47q-20 -12 -36 -12q-33 0 -78 35q-37 37 -37 60q0 47 47 130q-48 -54 -71 -77l-47 -47q-33 -33 -89 -83q-25 -18 -47 -18t-60 34t-38 63q0 58 92 227q90 153 221 305q152 161 268 182q30 7 53 -10
t34 -26t20 -16t28 -26q34 33 45 33z" />
    <glyph glyph-name="aacute" unicode="&#xe1;" horiz-adv-x="589" 
d="M684 946q-10 31 30 45q22 7 46 19q22 12 50 24t44 20t50 22q237 104 261 82q20 -19 -22 -109q-29 -41 -49 -63t-43 -21q-22 1 -121 -11q-98 -12 -150 -18t-61 -8q-7 -2 -19 4t-16 14zM209 205q-18 -47 -13 -52t21 13t45 44q29 27 54 55q26 28 40 42l86 92q55 84 119 170
q76 94 113 133q-41 4 -88 -34q-37 -25 -111 -95q-172 -190 -266 -368zM747 766q11 0 44 -8q6 -4 13 -7t16 -9t25 -14q38 -21 23 -46q-6 -6 -21 -26t-27 -33t-36 -47q-25 -34 -35 -48t-55 -76t-61 -88q-16 -24 -38 -56t-67 -115q-18 -39 -13 -45t48 12q18 4 23 2
q6 -4 -28 -45t-56 -58q-21 -18 -60 -47q-20 -12 -36 -12q-33 0 -78 35q-37 37 -37 60q0 47 47 130q-48 -54 -71 -77l-47 -47q-33 -33 -89 -83q-25 -18 -47 -18t-60 34t-38 63q0 58 92 227q90 153 221 305q152 161 268 182q30 7 53 -10t34 -26t20 -16t28 -26q34 33 45 33z
" />
    <glyph glyph-name="acircumflex" unicode="&#xe2;" horiz-adv-x="589" 
d="M965 1188q69 0 81 -35q8 -23 4 -76t-32 -126q-28 -71 -36 -79t-40 -4q-33 4 -66 19q-34 16 -38 29t22 77q26 63 34 89t-1 22q-8 -4 -43 -35q-114 -100 -182 -139q-18 -6 -15 4q0 4 6 10q12 24 34 46t30 31t14 15l54 54q12 10 38 36t47 40q22 14 89 22zM209 205
q-18 -47 -13 -52t21 13t45 44q29 27 54 55q26 28 40 42l86 92q55 84 119 170q76 94 113 133q-41 4 -88 -34q-37 -25 -111 -95q-172 -190 -266 -368zM747 766q11 0 44 -8q6 -4 13 -7t16 -9t25 -14q38 -21 23 -46q-6 -6 -21 -26t-27 -33t-36 -47q-25 -34 -35 -48t-55 -76
t-61 -88q-16 -24 -38 -56t-67 -115q-18 -39 -13 -45t48 12q18 4 23 2q6 -4 -28 -45t-56 -58q-21 -18 -60 -47q-20 -12 -36 -12q-33 0 -78 35q-37 37 -37 60q0 47 47 130q-48 -54 -71 -77l-47 -47q-33 -33 -89 -83q-25 -18 -47 -18t-60 34t-38 63q0 58 92 227q90 153 221 305
q152 161 268 182q30 7 53 -10t34 -26t20 -16t28 -26q34 33 45 33z" />
    <glyph glyph-name="atilde" unicode="&#xe3;" horiz-adv-x="589" 
d="M1110 1090q0 -5 -6 -17l-10 -20q-29 -84 -76 -131q-24 -29 -66 -29t-78 17t-52 40q-14 22 -22 40t-22 21t-20 -12q-12 -9 -24 -42t-29 -44q-12 -6 -56 -13t-80 -3q-12 6 -14 8q5 19 27 53q22 33 28 46q34 44 52 62t38 21q58 6 88 -8t52 -41q16 -29 22 -45t21 -16
q15 -1 25 19t14 27t19 36t46 34q32 5 66 9q57 0 57 -12zM209 205q-18 -47 -13 -52t21 13t45 44q29 27 54 55q26 28 40 42l86 92q55 84 119 170q76 94 113 133q-41 4 -88 -34q-37 -25 -111 -95q-172 -190 -266 -368zM747 766q11 0 44 -8q6 -4 13 -7t16 -9t25 -14
q38 -21 23 -46q-6 -6 -21 -26t-27 -33t-36 -47q-25 -34 -35 -48t-55 -76t-61 -88q-16 -24 -38 -56t-67 -115q-18 -39 -13 -45t48 12q18 4 23 2q6 -4 -28 -45t-56 -58q-21 -18 -60 -47q-20 -12 -36 -12q-33 0 -78 35q-37 37 -37 60q0 47 47 130q-48 -54 -71 -77l-47 -47
q-33 -33 -89 -83q-25 -18 -47 -18t-60 34t-38 63q0 58 92 227q90 153 221 305q152 161 268 182q30 7 53 -10t34 -26t20 -16t28 -26q34 33 45 33z" />
    <glyph glyph-name="adieresis" unicode="&#xe4;" horiz-adv-x="589" 
d="M209 205q-18 -47 -13 -52t21 13t45 44q29 27 54 55q26 28 40 42l86 92q55 84 119 170q76 94 113 133q-41 4 -88 -34q-37 -25 -111 -95q-172 -190 -266 -368zM1106 1080q0 -18 -36 -59q-36 -42 -83 -75t-67 -37h-27q-6 2 -29 7q-41 10 -65 42q-23 -18 -56 -38t-67 -7
q-65 13 -82 50q-10 16 -1 26t55 64t83 77q41 37 111 11q39 -14 55 -43q47 47 67 51q51 10 95 -14q16 -4 35 -23q12 -14 12 -32zM747 766q11 0 44 -8q6 -4 13 -7t16 -9t25 -14q38 -21 23 -46q-6 -6 -21 -26t-27 -33t-36 -47q-25 -34 -35 -48t-55 -76t-61 -88q-16 -24 -38 -56
t-67 -115q-18 -39 -13 -45t48 12q18 4 23 2q6 -4 -28 -45t-56 -58q-21 -18 -60 -47q-20 -12 -36 -12q-33 0 -78 35q-37 37 -37 60q0 47 47 130q-48 -54 -71 -77l-47 -47q-33 -33 -89 -83q-25 -18 -47 -18t-60 34t-38 63q0 58 92 227q90 153 221 305q152 161 268 182
q30 7 53 -10t34 -26t20 -16t28 -26q34 33 45 33z" />
    <glyph glyph-name="aring" unicode="&#xe5;" horiz-adv-x="589" 
d="M772 1026q0 -49 35 -84t84 -35t84 35t35 84t-35 84t-84 35t-84 -35t-35 -84zM729 1026q0 68 47 115t115 47t115 -47t47 -115t-47 -115t-115 -47t-115 47t-47 115zM209 205q-18 -47 -13 -52t21 13t45 44q29 27 54 55q26 28 40 42l86 92q55 84 119 170q76 94 113 133
q-41 4 -88 -34q-37 -25 -111 -95q-172 -190 -266 -368zM747 766q11 0 44 -8q6 -4 13 -7t16 -9t25 -14q38 -21 23 -46q-6 -6 -21 -26t-27 -33t-36 -47q-25 -34 -35 -48t-55 -76t-61 -88q-16 -24 -38 -56t-67 -115q-18 -39 -13 -45t48 12q18 4 23 2q6 -4 -28 -45t-56 -58
q-21 -18 -60 -47q-20 -12 -36 -12q-33 0 -78 35q-37 37 -37 60q0 47 47 130q-48 -54 -71 -77l-47 -47q-33 -33 -89 -83q-25 -18 -47 -18t-60 34t-38 63q0 58 92 227q90 153 221 305q152 161 268 182q30 7 53 -10t34 -26t20 -16t28 -26q34 33 45 33z" />
    <glyph glyph-name="ae" unicode="&#xe6;" horiz-adv-x="890" 
d="M649 352q58 9 156 107q109 104 166 203q14 24 11 26t-30 -12q-95 -67 -161 -146q-55 -59 -80 -92q-31 -35 -62 -86zM209 205q-18 -47 -13 -52t21 13t45 44q29 27 54 55q26 28 40 42l86 92q55 84 119 170q76 94 113 133q-41 4 -88 -34q-37 -25 -111 -95
q-172 -190 -266 -368zM291 92q0 51 47 133q-48 -54 -71 -77l-47 -47q-33 -33 -89 -83q-25 -18 -47 -18t-60 34t-38 63q0 58 92 227q90 153 221 305q152 161 268 182q23 6 39 -4q29 -10 59 -39q31 -30 56 -51q85 62 123 73q37 11 77 3q93 -19 148 -76q27 -27 24 -57
q-7 -70 -123 -220t-210 -176q-47 -11 -133 53q-51 -95 -63 -165t40 -74q54 0 182 88l80 55q27 20 35 15q12 -12 -86 -105q-145 -123 -227 -132q-28 -3 -68 5q-37 12 -74 35q-45 -79 -118 -6q-37 33 -37 59z" />
    <glyph glyph-name="ccedilla" unicode="&#xe7;" horiz-adv-x="544" 
d="M19 -8h36q16 -8 25 -8q8 -6 4 -10q-65 -73 -113 -162q0 -14 33 12q39 39 74 82q49 70 72 108q-88 39 -99 82q-28 110 49 266q58 124 187 269q47 53 107 98t96 59q37 14 77 3q41 -6 83 -30q93 -53 91 -95q0 -23 -16 -76q-12 -29 -45 -94q-75 -112 -143 -146
q-27 -12 -54 -6q-31 0 -55 12q-18 4 -39 21q-12 12 -2 22t63 60t99 107q83 101 80 122q-4 4 -45 -24q-71 -48 -195 -201q-108 -145 -142 -230t-32 -118t36 -37t101 35q66 38 130 87t70 37q5 -11 -18 -35t-43 -43t-28 -28q-68 -53 -82 -61q-31 -25 -74 -46t-67 -24h-21
l23 -63q14 -33 -92 -166q-27 -27 -55 -40t-128 19q-51 29 -75 44t-7 59q13 57 47 90t51 41t36 8z" />
    <glyph glyph-name="egrave" unicode="&#xe8;" horiz-adv-x="540" 
d="M824 881q3 -5 7 -9q5 -4 9 -18t-2 -22t-24 -12q-18 -3 -36 10q-17 14 -60 37q-44 22 -115 66q-191 117 -183 144q4 21 29 29t71 16q102 0 116 -17q24 -29 71 -91q47 -61 71 -84q23 -23 29 -30t10 -11t7 -8zM301 352q58 9 156 107q109 104 166 203q14 24 11 26t-30 -12
q-91 -64 -162 -146q-94 -101 -141 -178zM573 791q87 -13 148 -74q27 -27 23 -57q-9 -73 -123 -221q-115 -149 -209 -175q-47 -11 -133 53q-51 -95 -63 -165t40 -74q32 0 92 33t80 48t34 24l31 21q17 11 35 24t25 8q12 -12 -86 -105q-143 -121 -209 -130t-115 15t-67 40
q-49 41 -23 166t123 278q99 141 209 226q110 84 188 65z" />
    <glyph glyph-name="eacute" unicode="&#xe9;" horiz-adv-x="540" 
d="M516 889q-22 15 -14 33t33 26t45 19q20 10 48 23t82 37t84 38t144 51q65 20 49 -43q-10 -41 -29 -65q-14 -31 -41 -59q-27 -27 -39 -27t-86 -6t-160 -18q-87 -11 -94 -13t-22 4zM301 352q58 9 156 107q109 104 166 203q14 24 11 26t-30 -12q-91 -64 -162 -146
q-94 -101 -141 -178zM573 791q87 -13 148 -74q27 -27 23 -57q-9 -73 -123 -221q-115 -149 -209 -175q-47 -11 -133 53q-51 -95 -63 -165t40 -74q32 0 92 33t80 48t34 24l31 21q17 11 35 24t25 8q12 -12 -86 -105q-143 -121 -209 -130t-115 15t-67 40q-49 41 -23 166t123 278
q99 141 209 226q110 84 188 65z" />
    <glyph glyph-name="ecircumflex" unicode="&#xea;" horiz-adv-x="540" 
d="M754 1073q8 25 0 21t-48 -39q-119 -104 -178 -135q-18 -6 -14 4q0 4 6 10q12 24 78 90l53 53q46 46 78 71t99 29q68 3 77 -27q10 -30 6 -71t-16 -85q-30 -111 -48 -129q-17 -17 -81 -1q-60 22 -65 36t11 59l21 57q12 25 21 57zM301 352q58 9 156 107q109 104 166 203
q14 24 11 26t-30 -12q-91 -64 -162 -146q-94 -101 -141 -178zM573 791q87 -13 148 -74q27 -27 23 -57q-9 -73 -123 -221q-115 -149 -209 -175q-47 -11 -133 53q-51 -95 -63 -165t40 -74q32 0 92 33t80 48t34 24l31 21q17 11 35 24t25 8q12 -12 -86 -105q-143 -121 -209 -130
t-115 15t-67 40q-49 41 -23 166t123 278q99 141 209 226q110 84 188 65z" />
    <glyph glyph-name="edieresis" unicode="&#xeb;" horiz-adv-x="540" 
d="M301 352q58 9 156 107q109 104 166 203q14 24 11 26t-30 -12q-91 -64 -162 -146q-94 -101 -141 -178zM967 1118q46 -26 46 -50q1 -25 -29 -62t-94 -81q-63 -43 -91 -32q-22 0 -70 25q-12 10 -22 22q-8 -6 -48 -35q-41 -21 -77 -12q-112 41 -74 86q6 8 20 22q14 13 24 27
t30 32t43 43q23 24 49 30q39 5 78 -11t53 -43q47 47 72 52q25 6 90 -13zM573 791q87 -13 148 -74q27 -27 23 -57q-9 -73 -123 -221q-115 -149 -209 -175q-47 -11 -133 53q-51 -95 -63 -165t40 -74q32 0 92 33t80 48t34 24l31 21q17 11 35 24t25 8q12 -12 -86 -105
q-143 -121 -209 -130t-115 15t-67 40q-49 41 -23 166t123 278q99 141 209 226q110 84 188 65z" />
    <glyph glyph-name="igrave" unicode="&#xec;" horiz-adv-x="299" 
d="M748 885q-21 -21 -57 1q-36 21 -86 48t-86 51q-36 23 -82 51t-77 58q-32 29 -28 43t37 26q33 13 61 15t70 -3q41 -5 53 -22q2 -2 9 -11l16 -20t53 -66t65 -77q21 -23 32 -35t15 -16q3 -4 7 -18t-2 -25zM472 797q17 0 38 -11q16 -4 42 -18t34 -29q12 -14 2 -26
q-35 -43 -47 -62q-95 -107 -260 -356q-11 -18 -31 -52t-29 -48q-18 -43 -14 -47t33 7q29 12 37 8q7 -4 -28 -46q-37 -41 -57 -59t-59 -46q-23 -12 -48 -12t-64 33t-39 64q0 30 30 96q66 125 121 203q56 79 68 98q151 200 203 252q51 51 68 51z" />
    <glyph glyph-name="iacute" unicode="&#xed;" horiz-adv-x="299" 
d="M481 909q-5 32 24 43q29 10 63 28t83 36q30 20 103 47q74 28 132 51t73 9q30 -25 -20 -111t-97 -85t-182 -17q-134 -18 -142 -19q-8 -2 -20 4t-17 14zM472 797q17 0 38 -11q16 -4 42 -18t34 -29q12 -14 2 -26q-35 -43 -47 -62q-95 -107 -260 -356q-11 -18 -31 -52
t-29 -48q-18 -43 -14 -47t33 7q29 12 37 8q7 -4 -28 -46q-37 -41 -57 -59t-59 -46q-23 -12 -48 -12t-64 33t-39 64q0 30 30 96q66 125 121 203q56 79 68 98q151 200 203 252q51 51 68 51z" />
    <glyph glyph-name="icircumflex" unicode="&#xee;" horiz-adv-x="299" 
d="M700 1110q8 24 0 20t-83 -70t-142 -104q-18 -6 -14 5q0 4 6 10q12 24 78 90l53 53q56 56 84 77t90 21q68 5 79 -25t7 -71t-16 -85q-30 -111 -48 -129q-17 -17 -81 -1q-60 22 -65 36q-5 13 7 48l25 68q12 25 20 57zM472 797q17 0 38 -11q16 -4 42 -18t34 -29q12 -14 2 -26
q-35 -43 -47 -62q-95 -107 -260 -356q-11 -18 -31 -52t-29 -48q-18 -43 -14 -47t33 7q29 12 37 8q7 -4 -28 -46q-37 -41 -57 -59t-59 -46q-23 -12 -48 -12t-64 33t-39 64q0 30 30 96q66 125 121 203q56 79 68 98q151 200 203 252q51 51 68 51z" />
    <glyph glyph-name="idieresis" unicode="&#xef;" horiz-adv-x="299" 
d="M926 1016q-27 -39 -115 -103q-46 -31 -74 -20q-42 0 -69 25q-12 6 -25 22q-46 -40 -84 -49t-88 22q-54 30 -27 66q6 8 21 22q14 14 26 31t41 41q54 54 78 60q39 5 77 -11t54 -43q47 47 67 51t52 0l43 -12q47 -26 47 -52q0 -25 -24 -50zM472 797q17 0 38 -11q16 -4 42 -18
t34 -29q12 -14 2 -26q-35 -43 -47 -62q-95 -107 -260 -356q-11 -18 -31 -52t-29 -48q-18 -43 -14 -47t33 7q29 12 37 8q7 -4 -28 -46q-37 -41 -57 -59t-59 -46q-23 -12 -48 -12t-64 33t-39 64q0 30 30 96q66 125 121 203q56 79 68 98q151 200 203 252q51 51 68 51z" />
    <glyph glyph-name="eth" unicode="&#xf0;" horiz-adv-x="626" 
d="M246 102q37 33 120 135t161 226q136 213 105 232q-42 25 -263 -281q-129 -189 -160 -261q-31 -73 -17 -82t54 31zM660 1049q-6 0 -8 3q-1 3 1 8t14 41t44 94t61 65q23 8 39 2q18 0 57 -16t43 -40q16 -47 7 -139q90 45 102 39t28 -32t1 -52q-7 -10 -53 -37t-99 -51
q-65 -308 -217 -590q-186 -324 -369 -346q-8 -2 -61 6q-85 22 -172 66q-39 27 -41 43q-16 83 65 241q73 154 191 285q119 131 205 147q63 11 164 -63q18 61 30 117q-12 -4 -36 -14t-38 -2q-14 7 -21 30q-7 24 -5 36t18 17l105 56q6 53 4 87t-6 35q-25 -16 -36 -26t-17 -10z
" />
    <glyph glyph-name="ntilde" unicode="&#xf1;" horiz-adv-x="604" 
d="M1047 1079q0 -2 -15 -39l-33 -65q-20 -35 -45 -66q-26 -27 -68 -27t-86 23q-44 22 -63 72q-17 33 -45 14q-4 -8 -16 -28q-17 -52 -33 -60q-24 -12 -82 -15q-58 -4 -69 7q19 49 57 96q14 27 41 55t47 31q106 11 137 -49q10 -12 25 -41q6 -20 25 -20t32 45q8 12 18 32
t24 27q20 12 80 19q61 7 69 -7v-4zM-12 118q0 24 30 84q100 196 297 445q63 74 99 107q41 43 58 43t38 -11q20 -4 48 -22q56 -36 34 -51q-6 -6 -29 -30t-82 -86t-160 -199q-100 -138 -149 -218q80 109 166 213q109 125 178 199q203 203 252 205h2q18 0 37 -11q16 -4 42 -20
t36 -29q8 -16 0 -24l-49 -62q-30 -36 -80 -106q-41 -51 -92 -127q-33 -43 -86 -123q-47 -79 -65 -109t-7 -41q2 -3 20 5q70 28 39 -9q-12 -14 -39 -46t-96 -83q-20 -12 -36 -12q-34 0 -79 35q-36 36 -36 74t88 186q102 159 186 272q-131 -131 -240 -268q-92 -123 -112 -147
q-68 -96 -86 -129q-7 -5 -13 -17t-25 -4t-38 27q-23 18 -35 41q-16 24 -16 48z" />
    <glyph glyph-name="ograve" unicode="&#xf2;" horiz-adv-x="604" 
d="M870 922l8 -8t7 -9q4 -4 8 -18q4 -15 -2 -23q-5 -8 -21 -11t-40 13t-49 29q-25 12 -140 81t-142 96q-49 49 5 67q23 8 69 16q102 -1 114 -15q11 -14 25 -30t42 -56q29 -40 65 -77q35 -37 41 -44t10 -11zM356 209q91 106 178 242q86 135 106 185t6 59q-15 9 -78 -50
t-183 -231q-33 -45 -102 -152q-102 -176 -76 -190q27 -19 149 137zM414 735q55 43 94 50t79 -6t78 -35q37 -22 69 -56t38 -65t-14 -95q-31 -76 -88 -173t-174 -228q-136 -131 -209 -141q-46 -6 -109 28t-94 56t-36 54q-12 73 66 227q78 155 189 284q61 66 111 100z" />
    <glyph glyph-name="oacute" unicode="&#xf3;" horiz-adv-x="604" 
d="M944 901q-12 0 -104 -8t-161 -18q-67 -9 -75 -11t-22 4q-24 16 -15 34q8 18 33 26t74 34t160 70q52 26 171 64q32 10 44 -1t3 -47t-28 -61q-14 -31 -41 -59t-39 -27zM356 209q91 106 178 242q86 135 106 185t6 59q-15 9 -78 -50t-183 -231q-33 -45 -102 -152
q-102 -176 -76 -190q27 -19 149 137zM414 735q55 43 94 50t79 -6t78 -35q37 -22 69 -56t38 -65t-14 -95q-31 -76 -88 -173t-174 -228q-136 -131 -209 -141q-46 -6 -109 28t-94 56t-36 54q-12 73 66 227q78 155 189 284q61 66 111 100z" />
    <glyph glyph-name="ocircumflex" unicode="&#xf4;" horiz-adv-x="604" 
d="M954 1065q-4 -70 -31 -140q-28 -71 -35 -78t-41 -3t-67 19q-32 15 -36 29t49 141q23 54 6 46q-9 -4 -33 -25t-53 -44t-53 -41t-33 -29q-27 -20 -54 -35q-18 -6 -14 4q0 15 39 56q39 40 45 47l53 53q12 9 30 27t34 32q17 14 28 22q11 9 82 17q71 -1 81 -29q9 -28 3 -69z
M356 209q91 106 178 242q86 135 106 185t6 59q-15 9 -78 -50t-183 -231q-33 -45 -102 -152q-102 -176 -76 -190q27 -19 149 137zM414 735q55 43 94 50t79 -6t78 -35q37 -22 69 -56t38 -65t-14 -95q-31 -76 -88 -173t-174 -228q-136 -131 -209 -141q-46 -6 -109 28t-94 56
t-36 54q-12 73 66 227q78 155 189 284q61 66 111 100z" />
    <glyph glyph-name="otilde" unicode="&#xf5;" horiz-adv-x="604" 
d="M1010 1053q0 -2 -2 -6t-8 -20t-37 -81q-29 -45 -45 -61q-23 -29 -66 -29t-88 21t-64 73q-18 38 -45 13q-8 -12 -21 -45t-28 -40q-14 -7 -41 -14q-63 -8 -96 -4q-12 6 -14 8q86 171 145 183q105 11 137 -50q11 -13 21 -37t23 -24q22 0 38 45q16 31 21 35q17 33 61 37
q18 4 51 8q52 0 58 -8v-4zM356 209q91 106 178 242q86 135 106 185t6 59q-15 9 -78 -50t-183 -231q-33 -45 -102 -152q-102 -176 -76 -190q27 -19 149 137zM414 735q55 43 94 50t79 -6t78 -35q37 -22 69 -56t38 -65t-14 -95q-31 -76 -88 -173t-174 -228q-136 -131 -209 -141
q-46 -6 -109 28t-94 56t-36 54q-12 73 66 227q78 155 189 284q61 66 111 100z" />
    <glyph glyph-name="odieresis" unicode="&#xf6;" horiz-adv-x="604" 
d="M356 209q91 106 178 242q86 135 106 185t6 59q-15 9 -78 -50t-183 -231q-33 -45 -102 -152q-102 -176 -76 -190q27 -19 149 137zM1065 1024q0 -18 -35 -59t-83 -75t-68 -38h-27q-6 2 -30 8t-40 19q-12 6 -24 22q-23 -18 -55 -38t-68 -7q-65 14 -82 49q-10 17 -1 27t25 27
q15 17 45 52t68 62q42 38 111 10q39 -14 55 -43q48 48 68 52q52 11 94 -15q16 -4 35 -22q12 -13 12 -31zM414 735q55 43 94 50t79 -6t78 -35q37 -22 69 -56t38 -65t-14 -95q-31 -76 -88 -173t-174 -228q-136 -131 -209 -141q-46 -6 -109 28t-94 56t-36 54q-12 73 66 227
q78 155 189 284q61 66 111 100z" />
    <glyph glyph-name="ugrave" unicode="&#xf9;" horiz-adv-x="583" 
d="M907 881q-21 -21 -46 -5q-25 17 -59 35t-144 83q-110 66 -139 95q-30 30 -27 39q4 18 32 31q37 12 68 12q27 4 68 -1t53 -21l41 -51q100 -125 133 -158t20 -59zM768 797q18 0 39 -11q10 -2 40 -19q54 -30 38 -54q-23 -23 -49 -62q-63 -71 -172 -233q-33 -43 -86 -123
q-47 -79 -65 -109t-7 -41q2 -3 20 5q70 28 39 -9q-12 -14 -39 -46t-96 -83q-20 -12 -36 -12q-34 0 -79 35q-36 35 -36 59t12 56l-31 -31q-52 -52 -81 -72t-36 -27q-35 -20 -49 -20t-48 14t-49 43t-15 49t30 87q122 231 303 450q49 63 95 109t62 45q17 0 36 -11
q61 -16 78 -47q12 -14 -3 -30q-36 -38 -124 -164q-54 -67 -110 -150q-56 -82 -70 -100q-47 -79 -65 -109t-8 -38t49 23q41 32 69 68t32 37q68 116 234 340q145 181 178 181z" />
    <glyph glyph-name="uacute" unicode="&#xfa;" horiz-adv-x="583" 
d="M565 913q-9 31 31 45q22 8 44 20t51 23q28 11 44 19q281 132 311 105q22 -21 -22 -109q-30 -41 -50 -63t-49 -21t-121 -11q-91 -12 -143 -18t-67 -9q-15 -4 -29 19zM768 797q18 0 39 -11q10 -2 40 -19q54 -30 38 -54q-23 -23 -49 -62q-63 -71 -172 -233q-33 -43 -86 -123
q-47 -79 -65 -109t-7 -41q2 -3 20 5q70 28 39 -9q-12 -14 -39 -46t-96 -83q-20 -12 -36 -12q-34 0 -79 35q-36 35 -36 59t12 56l-31 -31q-52 -52 -81 -72t-36 -27q-35 -20 -49 -20t-48 14t-49 43t-15 49t30 87q122 231 303 450q49 63 95 109t62 45q17 0 36 -11
q61 -16 78 -47q12 -14 -3 -30q-36 -38 -124 -164q-54 -67 -110 -150q-56 -82 -70 -100q-47 -79 -65 -109t-8 -38t49 23q41 32 69 68t32 37q68 116 234 340q145 181 178 181z" />
    <glyph glyph-name="ucircumflex" unicode="&#xfb;" horiz-adv-x="583" 
d="M798 1090q-25 -22 -53 -44t-53 -40t-35 -29q-27 -20 -53 -35q-12 -4 -14 -1t4 15q34 45 82 93l53 53q54 54 78 72t94 26q70 0 79 -28t2 -98t-40 -140q-12 -41 -21 -49t-37 -5t-43 8q-59 20 -64 34t9 54t25 60q26 81 19 78q-7 -2 -32 -24zM768 797q18 0 39 -11
q10 -2 40 -19q54 -30 38 -54q-23 -23 -49 -62q-63 -71 -172 -233q-33 -43 -86 -123q-47 -79 -65 -109t-7 -41q2 -3 20 5q70 28 39 -9q-12 -14 -39 -46t-96 -83q-20 -12 -36 -12q-34 0 -79 35q-36 35 -36 59t12 56l-31 -31q-52 -52 -81 -72t-36 -27q-35 -20 -49 -20t-48 14
t-49 43t-15 49t30 87q122 231 303 450q49 63 95 109t62 45q17 0 36 -11q61 -16 78 -47q12 -14 -3 -30q-36 -38 -124 -164q-54 -67 -110 -150q-56 -82 -70 -100q-47 -79 -65 -109t-8 -38t49 23q41 32 69 68t32 37q68 116 234 340q145 181 178 181z" />
    <glyph glyph-name="udieresis" unicode="&#xfc;" horiz-adv-x="583" 
d="M909 905h-28q-6 2 -22 6t-48 21q-12 10 -23 22q-71 -63 -124 -45q-65 14 -80 49q-10 16 -1 26l24 28q59 69 122 122q35 29 102 3q41 -14 56 -43q47 47 67 51q50 10 95 -15q45 -15 47 -57q0 -12 -23 -45q-113 -113 -164 -123zM768 797q18 0 39 -11q10 -2 40 -19
q54 -30 38 -54q-23 -23 -49 -62q-63 -71 -172 -233q-33 -43 -86 -123q-47 -79 -65 -109t-7 -41q2 -3 20 5q70 28 39 -9q-12 -14 -39 -46t-96 -83q-20 -12 -36 -12q-34 0 -79 35q-36 35 -36 59t12 56l-31 -31q-52 -52 -81 -72t-36 -27q-35 -20 -49 -20t-48 14t-49 43t-15 49
t30 87q122 231 303 450q49 63 95 109t62 45q17 0 36 -11q61 -16 78 -47q12 -14 -3 -30q-36 -38 -124 -164q-54 -67 -110 -150q-56 -82 -70 -100q-47 -79 -65 -109t-8 -38t49 23q41 32 69 68t32 37q68 116 234 340q145 181 178 181z" />
  </font>
</defs>
</svg>
